<svg width="43" height="43" viewBox="0 0 43 43" fill="none" xmlns="http://www.w3.org/2000/svg">
<g filter="url(#filter0_d_230_160)">
<path d="M28.6578 3.41666H14.3419C8.12359 3.41666 4.4165 7.12374 4.4165 13.3421V27.6408C4.4165 33.8762 8.12359 37.5833 14.3419 37.5833H28.6407C34.859 37.5833 38.5661 33.8762 38.5661 27.6579V13.3421C38.5832 7.12374 34.8761 3.41666 28.6578 3.41666Z" fill="white"/>
</g>
<path d="M23.6526 27.8117C23.328 27.8117 23.0034 27.6921 22.7472 27.4358L16.7168 21.4054C16.2214 20.91 16.2214 20.09 16.7168 19.5946L22.7472 13.5642C23.2426 13.0687 24.0626 13.0687 24.558 13.5642C25.0534 14.0596 25.0534 14.8796 24.558 15.375L19.433 20.5L24.558 25.625C25.0534 26.1204 25.0534 26.9404 24.558 27.4358C24.3189 27.6921 23.9943 27.8117 23.6526 27.8117Z" fill="#417C55"/>
<defs>
<filter id="filter0_d_230_160" x="0.416504" y="0.416656" width="42.1494" height="42.1667" filterUnits="userSpaceOnUse" color-interpolation-filters="sRGB">
<feFlood flood-opacity="0" result="BackgroundImageFix"/>
<feColorMatrix in="SourceAlpha" type="matrix" values="0 0 0 0 0 0 0 0 0 0 0 0 0 0 0 0 0 0 127 0" result="hardAlpha"/>
<feOffset dy="1"/>
<feGaussianBlur stdDeviation="2"/>
<feComposite in2="hardAlpha" operator="out"/>
<feColorMatrix type="matrix" values="0 0 0 0 0 0 0 0 0 0 0 0 0 0 0 0 0 0 0.12 0"/>
<feBlend mode="normal" in2="BackgroundImageFix" result="effect1_dropShadow_230_160"/>
<feBlend mode="normal" in="SourceGraphic" in2="effect1_dropShadow_230_160" result="shape"/>
</filter>
</defs>
</svg>
