<svg width="24" height="24" viewBox="0 0 24 24" fill="none" xmlns="http://www.w3.org/2000/svg">
<path d="M2.25 5C1.65326 5 1.08097 5.23705 0.65901 5.65901C0.237053 6.08097 0 6.65326 0 7.25L0 9.5C0 9.69891 0.0790176 9.88968 0.21967 10.0303C0.360322 10.171 0.551088 10.25 0.75 10.25C1.34674 10.25 1.91903 10.4871 2.34099 10.909C2.76295 11.331 3 11.9033 3 12.5C3 13.0967 2.76295 13.669 2.34099 14.091C1.91903 14.5129 1.34674 14.75 0.75 14.75C0.551088 14.75 0.360322 14.829 0.21967 14.9697C0.0790176 15.1103 0 15.3011 0 15.5L0 17.75C0 18.3467 0.237053 18.919 0.65901 19.341C1.08097 19.7629 1.65326 20 2.25 20H21.75C22.3467 20 22.919 19.7629 23.341 19.341C23.7629 18.919 24 18.3467 24 17.75V15.5C24 15.3011 23.921 15.1103 23.7803 14.9697C23.6397 14.829 23.4489 14.75 23.25 14.75C22.6533 14.75 22.081 14.5129 21.659 14.091C21.2371 13.669 21 13.0967 21 12.5C21 11.9033 21.2371 11.331 21.659 10.909C22.081 10.4871 22.6533 10.25 23.25 10.25C23.4489 10.25 23.6397 10.171 23.7803 10.0303C23.921 9.88968 24 9.69891 24 9.5V7.25C24 6.65326 23.7629 6.08097 23.341 5.65901C22.919 5.23705 22.3467 5 21.75 5H2.25Z" fill="#417C55"/>
</svg>
