<svg width="24" height="24" viewBox="0 0 24 24" fill="none" xmlns="http://www.w3.org/2000/svg">
<path d="M4.5 12C4.5 16.142 7.858 19.5 12 19.5C16.142 19.5 19.5 16.142 19.5 12C19.5 7.85801 16.142 4.50001 12 4.50001C10.0458 4.49738 8.16819 5.26018 6.7695 6.62501H8.375C8.57391 6.62501 8.76468 6.70403 8.90533 6.84468C9.04598 6.98533 9.125 7.1761 9.125 7.37501C9.125 7.57392 9.04598 7.76469 8.90533 7.90534C8.76468 8.04599 8.57391 8.12501 8.375 8.12501H5.125C4.92609 8.12501 4.73532 8.04599 4.59467 7.90534C4.45402 7.76469 4.375 7.57392 4.375 7.37501V4.12501C4.375 3.9261 4.45402 3.73533 4.59467 3.59468C4.73532 3.45403 4.92609 3.37501 5.125 3.37501C5.32391 3.37501 5.51468 3.45403 5.65533 3.59468C5.79598 3.73533 5.875 3.9261 5.875 4.12501V5.40551C7.5381 3.85653 9.72728 2.99676 12 3.00001C16.9705 3.00001 21 7.02951 21 12C21 16.9705 16.9705 21 12 21C7.0295 21 3 16.9705 3 12C3 11.7395 3.011 11.481 3.033 11.226C3.0685 10.805 3.434 10.5 3.8565 10.5C4.2665 10.5 4.5725 10.8765 4.5335 11.285C4.5115 11.52 4.5 11.758 4.5 12ZM12.5 7.75001C12.5 7.5511 12.421 7.36033 12.2803 7.21968C12.1397 7.07903 11.9489 7.00001 11.75 7.00001C11.5511 7.00001 11.3603 7.07903 11.2197 7.21968C11.079 7.36033 11 7.5511 11 7.75001V12.75C11 12.9489 11.079 13.1397 11.2197 13.2803C11.3603 13.421 11.5511 13.5 11.75 13.5H14.25C14.4489 13.5 14.6397 13.421 14.7803 13.2803C14.921 13.1397 15 12.9489 15 12.75C15 12.5511 14.921 12.3603 14.7803 12.2197C14.6397 12.079 14.4489 12 14.25 12H12.5V7.75001Z" fill="#2F3D32"/>
</svg>
