<svg width="65" height="42" viewBox="0 0 65 42" fill="none" xmlns="http://www.w3.org/2000/svg">
<path d="M24.6682 14.4V27H21.2482L14.4982 16.74H14.3182V27H11.7082V14.4H15.1282L21.8782 24.66H22.0582V14.4H24.6682ZM33.6746 14.4C34.5746 14.4 35.3786 14.502 36.0866 14.706C36.8066 14.898 37.4126 15.186 37.9046 15.57C38.3966 15.942 38.7746 16.404 39.0386 16.956C39.3026 17.496 39.4346 18.114 39.4346 18.81C39.4346 19.77 39.1946 20.58 38.7146 21.24C38.2346 21.9 37.5446 22.404 36.6446 22.752L39.6146 27H36.6446L33.9986 23.22H33.6746H29.8046V27H27.1946V14.4H33.6746ZM29.8046 15.75V21.87H33.6746C34.6226 21.87 35.3546 21.624 35.8706 21.132C36.3866 20.628 36.6446 19.854 36.6446 18.81C36.6446 17.766 36.3866 16.998 35.8706 16.506C35.3546 16.002 34.6226 15.75 33.6746 15.75H29.8046ZM48.7911 26.01C49.6071 26.01 50.3871 25.872 51.1311 25.596C51.8871 25.308 52.6071 24.846 53.2911 24.21L54.1911 25.29C53.5071 25.926 52.6791 26.43 51.7071 26.802C50.7351 27.174 49.7031 27.36 48.6111 27.36C47.4831 27.36 46.4631 27.216 45.5511 26.928C44.6511 26.64 43.8771 26.214 43.2291 25.65C42.5931 25.086 42.1011 24.39 41.7531 23.562C41.4051 22.734 41.2311 21.78 41.2311 20.7C41.2311 19.62 41.3991 18.666 41.7351 17.838C42.0831 17.01 42.5691 16.314 43.1931 15.75C43.8291 15.186 44.5911 14.76 45.4791 14.472C46.3671 14.184 47.3511 14.04 48.4311 14.04C49.5231 14.04 50.5551 14.226 51.5271 14.598C52.4991 14.97 53.3271 15.474 54.0111 16.11L53.1111 17.19C52.4271 16.554 51.7071 16.098 50.9511 15.822C50.2071 15.534 49.4271 15.39 48.6111 15.39C47.9631 15.39 47.3571 15.498 46.7931 15.714C46.2291 15.918 45.7431 16.236 45.3351 16.668C44.9271 17.1 44.6031 17.652 44.3631 18.324C44.1351 18.984 44.0211 19.776 44.0211 20.7C44.0211 21.624 44.1351 22.422 44.3631 23.094C44.6031 23.754 44.9331 24.3 45.3531 24.732C45.7851 25.164 46.2891 25.488 46.8651 25.704C47.4531 25.908 48.0951 26.01 48.7911 26.01Z" fill="#417C55"/>
</svg>
