<svg width="384" height="324" viewBox="0 0 384 324" fill="none" xmlns="http://www.w3.org/2000/svg">
<g filter="url(#filter0_d_231_2584)">
<rect x="32" y="12" width="320" height="260" rx="24" fill="white"/>
<path d="M50.5645 116.317H55.3193C57.2061 116.317 58.6709 116.868 59.7139 117.97C60.7627 119.065 61.2871 120.609 61.2871 122.602C61.2871 124.635 60.7656 126.211 59.7227 127.33C58.6855 128.443 57.2178 129 55.3193 129H50.5645V116.317ZM52.832 118.277V127.04H55.0205C56.2861 127.04 57.2617 126.659 57.9473 125.897C58.6328 125.136 58.9756 124.049 58.9756 122.637C58.9756 121.254 58.627 120.182 57.9297 119.42C57.2383 118.658 56.2686 118.277 55.0205 118.277H52.832ZM67.6768 120.923C67.0264 120.923 66.4902 121.137 66.0684 121.564C65.6465 121.992 65.4121 122.558 65.3652 123.261H69.8916C69.8682 122.546 69.6572 121.978 69.2588 121.556C68.8604 121.134 68.333 120.923 67.6768 120.923ZM69.9092 126.354H71.9746C71.7695 127.233 71.2861 127.928 70.5244 128.438C69.7686 128.941 68.8281 129.193 67.7031 129.193C66.291 129.193 65.1807 128.754 64.3721 127.875C63.5693 126.99 63.168 125.774 63.168 124.228C63.168 122.681 63.5723 121.456 64.3809 120.554C65.1895 119.646 66.291 119.191 67.6855 119.191C69.0566 119.191 70.1289 119.622 70.9023 120.483C71.6816 121.339 72.0713 122.525 72.0713 124.043V124.746H65.3564V124.86C65.3857 125.663 65.6143 126.299 66.042 126.768C66.4756 127.23 67.0498 127.462 67.7646 127.462C68.8662 127.462 69.5811 127.093 69.9092 126.354ZM79.498 119.227C80.7168 119.227 81.6807 119.669 82.3896 120.554C83.1045 121.438 83.4619 122.651 83.4619 124.192C83.4619 125.728 83.1074 126.94 82.3984 127.831C81.6953 128.716 80.7373 129.158 79.5244 129.158C78.8389 129.158 78.2383 129.018 77.7227 128.736C77.2129 128.449 76.835 128.051 76.5889 127.541H76.4395V132.199H74.2598V119.385H76.3604V120.976H76.5098C76.7852 120.431 77.1865 120.003 77.7139 119.692C78.2471 119.382 78.8418 119.227 79.498 119.227ZM78.8125 127.304C79.5684 127.304 80.1572 127.028 80.5791 126.478C81.0068 125.927 81.2207 125.165 81.2207 124.192C81.2207 123.22 81.0068 122.458 80.5791 121.907C80.1572 121.356 79.5713 121.081 78.8213 121.081C78.0771 121.081 77.4883 121.359 77.0547 121.916C76.6211 122.473 76.4014 123.231 76.3955 124.192C76.4014 125.153 76.6182 125.912 77.0459 126.469C77.4795 127.025 78.0684 127.304 78.8125 127.304ZM88.9375 127.444C89.5938 127.444 90.1416 127.257 90.5811 126.882C91.0205 126.501 91.2402 126.032 91.2402 125.476V124.711L89.0693 124.852C87.874 124.928 87.2764 125.361 87.2764 126.152C87.2764 126.551 87.4287 126.867 87.7334 127.102C88.0439 127.33 88.4453 127.444 88.9375 127.444ZM88.2959 129.158C87.3584 129.158 86.5938 128.895 86.002 128.367C85.4102 127.84 85.1143 127.143 85.1143 126.275C85.1143 125.408 85.4277 124.729 86.0547 124.236C86.6875 123.744 87.5898 123.463 88.7617 123.393L91.2402 123.243V122.435C91.2402 121.96 91.085 121.597 90.7744 121.345C90.4639 121.093 90.0156 120.967 89.4297 120.967C88.9258 120.967 88.5098 121.055 88.1816 121.23C87.8535 121.4 87.6396 121.646 87.54 121.969H85.4834C85.5713 121.119 85.9814 120.445 86.7139 119.947C87.4521 119.443 88.3926 119.191 89.5352 119.191C90.7656 119.191 91.7148 119.476 92.3828 120.044C93.0566 120.612 93.3936 121.409 93.3936 122.435V129H91.293V127.682H91.1436C90.874 128.145 90.4873 128.508 89.9834 128.771C89.4854 129.029 88.9229 129.158 88.2959 129.158ZM96.0215 129V119.385H98.1221V120.879H98.2715C98.4062 120.398 98.708 120.003 99.1768 119.692C99.6514 119.382 100.196 119.227 100.812 119.227C101.204 119.227 101.506 119.259 101.717 119.323V121.345C101.494 121.263 101.122 121.222 100.601 121.222C99.8916 121.222 99.3145 121.427 98.8691 121.837C98.4238 122.241 98.2012 122.777 98.2012 123.445V129H96.0215ZM104.644 117.029H106.814V119.446H108.871V121.187H106.814V125.906C106.814 126.381 106.92 126.729 107.131 126.952C107.342 127.169 107.676 127.277 108.133 127.277C108.332 127.277 108.578 127.263 108.871 127.233V128.938C108.508 129.009 108.127 129.044 107.729 129.044C106.627 129.044 105.836 128.842 105.355 128.438C104.881 128.033 104.644 127.365 104.644 126.434V121.187H103.123V119.446H104.644V117.029ZM119.418 119.385V129H117.317V127.471H117.168C116.682 128.619 115.724 129.193 114.294 129.193C113.245 129.193 112.428 128.883 111.842 128.262C111.256 127.635 110.963 126.759 110.963 125.634V119.385H113.143V125.089C113.143 125.827 113.298 126.378 113.608 126.741C113.919 127.099 114.399 127.277 115.05 127.277C115.753 127.277 116.292 127.075 116.667 126.671C117.048 126.267 117.238 125.704 117.238 124.983V119.385H119.418ZM122.09 129V119.385H124.19V120.879H124.34C124.475 120.398 124.776 120.003 125.245 119.692C125.72 119.382 126.265 119.227 126.88 119.227C127.272 119.227 127.574 119.259 127.785 119.323V121.345C127.562 121.263 127.19 121.222 126.669 121.222C125.96 121.222 125.383 121.427 124.938 121.837C124.492 122.241 124.27 122.777 124.27 123.445V129H122.09ZM133.366 120.923C132.716 120.923 132.18 121.137 131.758 121.564C131.336 121.992 131.102 122.558 131.055 123.261H135.581C135.558 122.546 135.347 121.978 134.948 121.556C134.55 121.134 134.022 120.923 133.366 120.923ZM135.599 126.354H137.664C137.459 127.233 136.976 127.928 136.214 128.438C135.458 128.941 134.518 129.193 133.393 129.193C131.98 129.193 130.87 128.754 130.062 127.875C129.259 126.99 128.857 125.774 128.857 124.228C128.857 122.681 129.262 121.456 130.07 120.554C130.879 119.646 131.98 119.191 133.375 119.191C134.746 119.191 135.818 119.622 136.592 120.483C137.371 121.339 137.761 122.525 137.761 124.043V124.746H131.046V124.86C131.075 125.663 131.304 126.299 131.731 126.768C132.165 127.23 132.739 127.462 133.454 127.462C134.556 127.462 135.271 127.093 135.599 126.354Z" fill="#35BD63"/>
<path d="M51.4883 162H50.2578V152.136H51.4883V162ZM56.5811 162.13C55.6377 162.13 54.8857 161.784 54.3252 161.091C53.7646 160.398 53.4844 159.473 53.4844 158.315C53.4844 157.162 53.7646 156.24 54.3252 155.547C54.8903 154.85 55.6423 154.501 56.5811 154.501C57.096 154.501 57.5563 154.617 57.9619 154.85C58.3721 155.077 58.682 155.392 58.8916 155.793H58.9941V151.705H60.1699V162H59.0488V160.824H58.9395C58.707 161.234 58.3835 161.556 57.9688 161.788C57.554 162.016 57.0915 162.13 56.5811 162.13ZM56.8545 155.561C56.1846 155.561 55.6582 155.807 55.2754 156.299C54.8926 156.786 54.7012 157.459 54.7012 158.315C54.7012 159.177 54.8903 159.851 55.2686 160.339C55.6514 160.826 56.18 161.07 56.8545 161.07C57.5244 161.07 58.0531 160.824 58.4404 160.332C58.8278 159.84 59.0215 159.168 59.0215 158.315C59.0215 157.472 58.8255 156.802 58.4336 156.306C58.0462 155.809 57.5199 155.561 56.8545 155.561ZM68.4141 154.631V162H67.293V160.845H67.1836C66.9967 161.259 66.7096 161.578 66.3223 161.802C65.9349 162.021 65.4609 162.13 64.9004 162.13C64.0801 162.13 63.4557 161.895 63.0273 161.426C62.599 160.956 62.3848 160.282 62.3848 159.402V154.631H63.5605V159.115C63.5605 159.785 63.6927 160.277 63.957 160.592C64.2214 160.902 64.6452 161.057 65.2285 161.057C65.8711 161.057 66.3656 160.877 66.7119 160.517C67.0628 160.152 67.2383 159.644 67.2383 158.992V154.631H68.4141ZM75.127 157.898C75.127 155.483 75.7741 153.419 77.0684 151.705H78.0664C77.5788 152.334 77.1686 153.236 76.8359 154.412C76.5033 155.588 76.3369 156.75 76.3369 157.898C76.3369 159.051 76.501 160.218 76.8291 161.398C77.1618 162.574 77.5742 163.474 78.0664 164.099H77.0684C75.7741 162.385 75.127 160.318 75.127 157.898ZM86.4883 162L85.4971 159.177H81.5732L80.582 162H79.29L82.9268 152.136H84.1436L87.7803 162H86.4883ZM83.4805 153.729L81.9355 158.131H85.1348L83.5898 153.729H83.4805ZM93.0234 162.13C92.513 162.13 92.0482 162.016 91.6289 161.788C91.2142 161.556 90.8906 161.234 90.6582 160.824H90.5488V162H89.4277V151.705H90.6035V155.793H90.7129C90.9134 155.396 91.221 155.082 91.6357 154.85C92.055 154.617 92.5176 154.501 93.0234 154.501C93.9622 154.501 94.7119 154.847 95.2725 155.54C95.833 156.233 96.1133 157.158 96.1133 158.315C96.1133 159.468 95.8307 160.394 95.2656 161.091C94.7051 161.784 93.9577 162.13 93.0234 162.13ZM92.75 155.561C92.0801 155.561 91.5492 155.807 91.1572 156.299C90.7699 156.791 90.5762 157.463 90.5762 158.315C90.5762 159.168 90.7699 159.84 91.1572 160.332C91.5492 160.824 92.0801 161.07 92.75 161.07C93.4245 161.07 93.9508 160.826 94.3291 160.339C94.7074 159.851 94.8965 159.177 94.8965 158.315C94.8965 157.454 94.7074 156.78 94.3291 156.292C93.9508 155.804 93.4245 155.561 92.75 155.561ZM103.92 154.631V162H102.799V160.845H102.689C102.503 161.259 102.215 161.578 101.828 161.802C101.441 162.021 100.967 162.13 100.406 162.13C99.5859 162.13 98.9616 161.895 98.5332 161.426C98.1048 160.956 97.8906 160.282 97.8906 159.402V154.631H99.0664V159.115C99.0664 159.785 99.1986 160.277 99.4629 160.592C99.7272 160.902 100.151 161.057 100.734 161.057C101.377 161.057 101.871 160.877 102.218 160.517C102.569 160.152 102.744 159.644 102.744 158.992V154.631H103.92ZM107.338 154.631V162.362C107.338 163.119 107.156 163.668 106.791 164.01C106.426 164.356 105.857 164.529 105.082 164.529H104.877V163.524H105.055C105.465 163.524 105.752 163.438 105.916 163.265C106.08 163.091 106.162 162.798 106.162 162.383V154.631H107.338ZM107.331 152.895C107.172 153.054 106.978 153.134 106.75 153.134C106.522 153.134 106.328 153.054 106.169 152.895C106.009 152.73 105.93 152.537 105.93 152.313C105.93 152.09 106.009 151.899 106.169 151.739C106.328 151.575 106.522 151.493 106.75 151.493C106.978 151.493 107.172 151.575 107.331 151.739C107.491 151.899 107.57 152.09 107.57 152.313C107.57 152.537 107.491 152.73 107.331 152.895ZM111.85 161.098C112.456 161.098 112.957 160.922 113.354 160.571C113.755 160.22 113.955 159.781 113.955 159.252V158.575L111.973 158.705C111.417 158.742 111.009 158.858 110.749 159.054C110.489 159.25 110.359 159.535 110.359 159.908C110.359 160.277 110.498 160.569 110.776 160.783C111.054 160.993 111.412 161.098 111.85 161.098ZM111.631 162.13C110.906 162.13 110.309 161.932 109.84 161.535C109.375 161.134 109.143 160.601 109.143 159.936C109.143 159.279 109.375 158.764 109.84 158.391C110.305 158.017 110.968 157.805 111.829 157.755L113.955 157.625V156.955C113.955 156.499 113.814 156.151 113.531 155.909C113.249 155.668 112.834 155.547 112.287 155.547C111.845 155.547 111.478 155.627 111.187 155.786C110.895 155.946 110.708 156.171 110.626 156.463H109.437C109.514 155.875 109.817 155.401 110.346 155.041C110.879 154.681 111.54 154.501 112.328 154.501C113.221 154.501 113.912 154.717 114.399 155.15C114.887 155.583 115.131 156.185 115.131 156.955V162H114.01V160.913H113.9C113.663 161.305 113.349 161.606 112.957 161.815C112.565 162.025 112.123 162.13 111.631 162.13ZM119.889 157.898C119.889 160.318 119.242 162.385 117.947 164.099H116.949C117.441 163.474 117.852 162.574 118.18 161.398C118.512 160.218 118.679 159.051 118.679 157.898C118.679 156.75 118.512 155.588 118.18 154.412C117.847 153.236 117.437 152.334 116.949 151.705H117.947C119.242 153.419 119.889 155.483 119.889 157.898Z" fill="#2F3D32" fill-opacity="0.75"/>
<path d="M53.71 195.246C52.5798 195.246 51.6592 194.979 50.9482 194.446C50.2419 193.909 49.8887 193.214 49.8887 192.361C49.8887 191.737 50.0824 191.197 50.4697 190.741C50.8571 190.281 51.3743 189.982 52.0215 189.846V189.729C51.4974 189.602 51.0758 189.342 50.7568 188.95C50.4424 188.554 50.2852 188.091 50.2852 187.562C50.2852 186.783 50.6064 186.143 51.249 185.642C51.8916 185.14 52.7142 184.89 53.7168 184.89C54.7194 184.89 55.5397 185.14 56.1777 185.642C56.8203 186.143 57.1416 186.783 57.1416 187.562C57.1416 188.091 56.9844 188.551 56.6699 188.943C56.36 189.335 55.9408 189.597 55.4121 189.729V189.846C56.0547 189.964 56.5697 190.254 56.957 190.714C57.349 191.17 57.5449 191.716 57.5449 192.354C57.5449 193.211 57.1895 193.909 56.4785 194.446C55.7721 194.979 54.8493 195.246 53.71 195.246ZM53.7168 193.872C54.3092 193.872 54.79 193.719 55.1592 193.414C55.5329 193.104 55.7197 192.703 55.7197 192.211C55.7197 191.719 55.5329 191.32 55.1592 191.015C54.79 190.705 54.3092 190.55 53.7168 190.55C53.1198 190.55 52.6344 190.705 52.2607 191.015C51.8916 191.32 51.707 191.719 51.707 192.211C51.707 192.703 51.8916 193.104 52.2607 193.414C52.6344 193.719 53.1198 193.872 53.7168 193.872ZM52.4932 188.793C52.8076 189.062 53.2155 189.196 53.7168 189.196C54.2181 189.196 54.6237 189.062 54.9336 188.793C55.248 188.52 55.4053 188.166 55.4053 187.733C55.4053 187.291 55.248 186.934 54.9336 186.66C54.6237 186.382 54.2181 186.243 53.7168 186.243C53.2109 186.243 52.8008 186.382 52.4863 186.66C52.1764 186.934 52.0215 187.291 52.0215 187.733C52.0215 188.166 52.1787 188.52 52.4932 188.793ZM60.7373 193.954C60.4183 193.954 60.1562 193.852 59.9512 193.646C59.7461 193.441 59.6436 193.184 59.6436 192.874C59.6436 192.56 59.7461 192.302 59.9512 192.102C60.1562 191.896 60.4183 191.794 60.7373 191.794C61.0609 191.794 61.3229 191.896 61.5234 192.102C61.7285 192.302 61.8311 192.56 61.8311 192.874C61.8311 193.184 61.7285 193.441 61.5234 193.646C61.3229 193.852 61.0609 193.954 60.7373 193.954ZM60.7373 188.827C60.4183 188.827 60.1562 188.727 59.9512 188.526C59.7461 188.321 59.6436 188.064 59.6436 187.754C59.6436 187.439 59.7461 187.182 59.9512 186.981C60.1562 186.776 60.4183 186.674 60.7373 186.674C61.0609 186.674 61.3229 186.776 61.5234 186.981C61.7285 187.182 61.8311 187.439 61.8311 187.754C61.8311 188.064 61.7285 188.321 61.5234 188.526C61.3229 188.727 61.0609 188.827 60.7373 188.827ZM66.4521 195V186.913H66.3359L63.8818 188.636V186.94L66.459 185.136H68.2158V195H66.4521ZM74.5732 195.246C73.557 195.246 72.723 194.968 72.0713 194.412C71.4196 193.856 71.0732 193.141 71.0322 192.266H72.6865C72.7412 192.717 72.944 193.081 73.2949 193.359C73.6458 193.637 74.0765 193.776 74.5869 193.776C75.1657 193.776 75.6328 193.599 75.9883 193.243C76.3483 192.883 76.5283 192.409 76.5283 191.821C76.5283 191.233 76.3483 190.757 75.9883 190.393C75.6328 190.023 75.1702 189.839 74.6006 189.839C74.1995 189.839 73.8418 189.923 73.5273 190.092C73.2174 190.26 72.9714 190.5 72.7891 190.81H71.1895L71.7021 185.136H77.6426V186.626H73.0693L72.8301 189.395H72.9463C73.402 188.779 74.097 188.472 75.0312 188.472C75.9655 188.472 76.7311 188.782 77.3281 189.401C77.9297 190.021 78.2305 190.814 78.2305 191.78C78.2305 192.81 77.8932 193.646 77.2188 194.289C76.5488 194.927 75.667 195.246 74.5732 195.246ZM90.3643 195L89.5303 192.478H85.9004L85.0527 195H83.2686L86.7686 185.136H88.751L92.2578 195H90.3643ZM87.6641 187.016L86.3105 191.083H89.1201L87.7803 187.016H87.6641ZM104.139 195H102.498V188.062H102.402L99.6748 194.617H98.417L95.6895 188.062H95.5938V195H93.9531V185.136H96.0176L98.9844 192.32H99.1074L102.074 185.136H104.139V195Z" fill="#2F3D32" fill-opacity="0.75"/>
<path d="M181 148.5L188 155.5L181 162.5M172 155.5H188H172Z" stroke="black" stroke-width="2" stroke-linecap="round" stroke-linejoin="round"/>
<path d="M230.747 129L229.675 125.757H225.008L223.918 129H221.624L226.124 116.317H228.673L233.182 129H230.747ZM227.275 118.734L225.535 123.964H229.147L227.425 118.734H227.275ZM235.133 129V119.385H237.233V120.879H237.383C237.518 120.398 237.819 120.003 238.288 119.692C238.763 119.382 239.308 119.227 239.923 119.227C240.315 119.227 240.617 119.259 240.828 119.323V121.345C240.605 121.263 240.233 121.222 239.712 121.222C239.003 121.222 238.426 121.427 237.98 121.837C237.535 122.241 237.312 122.777 237.312 123.445V129H235.133ZM242.744 129V119.385H244.845V120.879H244.994C245.129 120.398 245.431 120.003 245.899 119.692C246.374 119.382 246.919 119.227 247.534 119.227C247.927 119.227 248.229 119.259 248.439 119.323V121.345C248.217 121.263 247.845 121.222 247.323 121.222C246.614 121.222 246.037 121.427 245.592 121.837C245.146 122.241 244.924 122.777 244.924 123.445V129H242.744ZM250.259 129V119.385H252.43V129H250.259ZM251.34 117.82C250.947 117.82 250.625 117.709 250.373 117.486C250.121 117.258 249.995 116.968 249.995 116.616C249.995 116.265 250.121 115.978 250.373 115.755C250.625 115.526 250.947 115.412 251.34 115.412C251.738 115.412 252.061 115.526 252.307 115.755C252.559 115.978 252.685 116.265 252.685 116.616C252.685 116.968 252.559 117.258 252.307 117.486C252.061 117.709 251.738 117.82 251.34 117.82ZM263.521 119.385L260.12 129H257.721L254.302 119.385H256.64L258.863 126.82H259.013L261.219 119.385H263.521ZM268.32 127.444C268.977 127.444 269.524 127.257 269.964 126.882C270.403 126.501 270.623 126.032 270.623 125.476V124.711L268.452 124.852C267.257 124.928 266.659 125.361 266.659 126.152C266.659 126.551 266.812 126.867 267.116 127.102C267.427 127.33 267.828 127.444 268.32 127.444ZM267.679 129.158C266.741 129.158 265.977 128.895 265.385 128.367C264.793 127.84 264.497 127.143 264.497 126.275C264.497 125.408 264.811 124.729 265.438 124.236C266.07 123.744 266.973 123.463 268.145 123.393L270.623 123.243V122.435C270.623 121.96 270.468 121.597 270.157 121.345C269.847 121.093 269.398 120.967 268.812 120.967C268.309 120.967 267.893 121.055 267.564 121.23C267.236 121.4 267.022 121.646 266.923 121.969H264.866C264.954 121.119 265.364 120.445 266.097 119.947C266.835 119.443 267.775 119.191 268.918 119.191C270.148 119.191 271.098 119.476 271.766 120.044C272.439 120.612 272.776 121.409 272.776 122.435V129H270.676V127.682H270.526C270.257 128.145 269.87 128.508 269.366 128.771C268.868 129.029 268.306 129.158 267.679 129.158ZM275.492 129V115.667H277.672V129H275.492Z" fill="#3156D8"/>
<path d="M223.488 153.229V157.003H225.915C226.549 157.003 227.036 156.841 227.378 156.518C227.724 156.189 227.897 155.722 227.897 155.116C227.897 154.524 227.717 154.061 227.357 153.729C226.997 153.396 226.498 153.229 225.86 153.229H223.488ZM223.488 158.097V162H222.258V152.136H226.024C226.977 152.136 227.738 152.405 228.308 152.942C228.882 153.476 229.169 154.187 229.169 155.075C229.169 155.763 228.993 156.358 228.643 156.859C228.292 157.361 227.806 157.709 227.187 157.905L229.47 162H228.027L225.915 158.097H223.488ZM231.281 162V154.631H232.457V162H231.281ZM232.45 152.895C232.291 153.054 232.097 153.134 231.869 153.134C231.641 153.134 231.448 153.054 231.288 152.895C231.129 152.73 231.049 152.537 231.049 152.313C231.049 152.09 231.129 151.899 231.288 151.739C231.448 151.575 231.641 151.493 231.869 151.493C232.097 151.493 232.291 151.575 232.45 151.739C232.61 151.899 232.689 152.09 232.689 152.313C232.689 152.537 232.61 152.73 232.45 152.895ZM237.68 160.852C238.359 160.852 238.892 160.615 239.279 160.141C239.671 159.662 239.867 159.017 239.867 158.206C239.867 157.399 239.671 156.757 239.279 156.278C238.887 155.8 238.354 155.561 237.68 155.561C237.005 155.561 236.481 155.798 236.107 156.271C235.734 156.745 235.547 157.39 235.547 158.206C235.547 159.022 235.734 159.667 236.107 160.141C236.481 160.615 237.005 160.852 237.68 160.852ZM237.734 164.83C236.855 164.83 236.142 164.648 235.595 164.283C235.052 163.919 234.736 163.429 234.645 162.813H235.889C235.952 163.119 236.146 163.36 236.47 163.538C236.793 163.716 237.215 163.805 237.734 163.805C238.395 163.805 238.91 163.65 239.279 163.34C239.653 163.035 239.84 162.611 239.84 162.068V160.619H239.73C239.498 161.025 239.181 161.339 238.78 161.562C238.379 161.781 237.926 161.891 237.42 161.891C236.472 161.891 235.72 161.556 235.164 160.886C234.608 160.211 234.33 159.318 234.33 158.206C234.33 157.094 234.61 156.199 235.171 155.52C235.731 154.84 236.481 154.501 237.42 154.501C237.935 154.501 238.404 154.619 238.828 154.856C239.252 155.089 239.571 155.403 239.785 155.8H239.895V154.631H241.016V162.13C241.016 162.955 240.719 163.611 240.127 164.099C239.535 164.586 238.737 164.83 237.734 164.83ZM245.5 161.098C246.106 161.098 246.607 160.922 247.004 160.571C247.405 160.22 247.605 159.781 247.605 159.252V158.575L245.623 158.705C245.067 158.742 244.659 158.858 244.399 159.054C244.14 159.25 244.01 159.535 244.01 159.908C244.01 160.277 244.149 160.569 244.427 160.783C244.705 160.993 245.062 161.098 245.5 161.098ZM245.281 162.13C244.557 162.13 243.96 161.932 243.49 161.535C243.025 161.134 242.793 160.601 242.793 159.936C242.793 159.279 243.025 158.764 243.49 158.391C243.955 158.017 244.618 157.805 245.479 157.755L247.605 157.625V156.955C247.605 156.499 247.464 156.151 247.182 155.909C246.899 155.668 246.484 155.547 245.938 155.547C245.495 155.547 245.129 155.627 244.837 155.786C244.545 155.946 244.358 156.171 244.276 156.463H243.087C243.164 155.875 243.467 155.401 243.996 155.041C244.529 154.681 245.19 154.501 245.979 154.501C246.872 154.501 247.562 154.717 248.05 155.15C248.537 155.583 248.781 156.185 248.781 156.955V162H247.66V160.913H247.551C247.314 161.305 246.999 161.606 246.607 161.815C246.215 162.025 245.773 162.13 245.281 162.13ZM250.784 156.647C250.784 156.037 251.046 155.526 251.57 155.116C252.094 154.706 252.748 154.501 253.532 154.501C254.302 154.501 254.938 154.679 255.439 155.034C255.941 155.39 256.23 155.87 256.308 156.477H255.146C255.063 156.176 254.881 155.939 254.599 155.766C254.321 155.588 253.963 155.499 253.525 155.499C253.083 155.499 252.712 155.602 252.411 155.807C252.115 156.012 251.967 156.276 251.967 156.6C251.967 156.85 252.069 157.06 252.274 157.229C252.484 157.393 252.808 157.527 253.245 157.632L254.38 157.905C255.082 158.074 255.599 158.318 255.932 158.637C256.269 158.956 256.438 159.377 256.438 159.901C256.438 160.553 256.157 161.089 255.597 161.508C255.036 161.923 254.332 162.13 253.484 162.13C252.664 162.13 251.992 161.948 251.468 161.583C250.944 161.218 250.65 160.731 250.586 160.12H251.796C251.896 160.439 252.094 160.69 252.391 160.872C252.687 161.05 253.065 161.139 253.525 161.139C254.022 161.139 254.43 161.032 254.749 160.817C255.068 160.603 255.228 160.327 255.228 159.99C255.228 159.489 254.838 159.143 254.059 158.951L252.794 158.644C252.097 158.475 251.586 158.233 251.263 157.919C250.944 157.6 250.784 157.176 250.784 156.647ZM260.553 161.098C261.159 161.098 261.66 160.922 262.057 160.571C262.458 160.22 262.658 159.781 262.658 159.252V158.575L260.676 158.705C260.12 158.742 259.712 158.858 259.452 159.054C259.192 159.25 259.062 159.535 259.062 159.908C259.062 160.277 259.201 160.569 259.479 160.783C259.757 160.993 260.115 161.098 260.553 161.098ZM260.334 162.13C259.609 162.13 259.012 161.932 258.543 161.535C258.078 161.134 257.846 160.601 257.846 159.936C257.846 159.279 258.078 158.764 258.543 158.391C259.008 158.017 259.671 157.805 260.532 157.755L262.658 157.625V156.955C262.658 156.499 262.517 156.151 262.234 155.909C261.952 155.668 261.537 155.547 260.99 155.547C260.548 155.547 260.181 155.627 259.89 155.786C259.598 155.946 259.411 156.171 259.329 156.463H258.14C258.217 155.875 258.52 155.401 259.049 155.041C259.582 154.681 260.243 154.501 261.031 154.501C261.924 154.501 262.615 154.717 263.103 155.15C263.59 155.583 263.834 156.185 263.834 156.955V162H262.713V160.913H262.604C262.367 161.305 262.052 161.606 261.66 161.815C261.268 162.025 260.826 162.13 260.334 162.13ZM270.506 157.898C270.506 155.483 271.153 153.419 272.447 151.705H273.445C272.958 152.334 272.548 153.236 272.215 154.412C271.882 155.588 271.716 156.75 271.716 157.898C271.716 159.051 271.88 160.218 272.208 161.398C272.541 162.574 272.953 163.474 273.445 164.099H272.447C271.153 162.385 270.506 160.318 270.506 157.898ZM276.686 162H275.455V152.136H276.686V156.928H276.795L281.115 152.136H282.66L278.716 156.395L283.022 162H281.43L277.868 157.249L276.686 158.555V162ZM286.666 161.098C287.272 161.098 287.773 160.922 288.17 160.571C288.571 160.22 288.771 159.781 288.771 159.252V158.575L286.789 158.705C286.233 158.742 285.825 158.858 285.565 159.054C285.306 159.25 285.176 159.535 285.176 159.908C285.176 160.277 285.315 160.569 285.593 160.783C285.871 160.993 286.229 161.098 286.666 161.098ZM286.447 162.13C285.723 162.13 285.126 161.932 284.656 161.535C284.191 161.134 283.959 160.601 283.959 159.936C283.959 159.279 284.191 158.764 284.656 158.391C285.121 158.017 285.784 157.805 286.646 157.755L288.771 157.625V156.955C288.771 156.499 288.63 156.151 288.348 155.909C288.065 155.668 287.65 155.547 287.104 155.547C286.661 155.547 286.295 155.627 286.003 155.786C285.711 155.946 285.524 156.171 285.442 156.463H284.253C284.33 155.875 284.633 155.401 285.162 155.041C285.695 154.681 286.356 154.501 287.145 154.501C288.038 154.501 288.728 154.717 289.216 155.15C289.703 155.583 289.947 156.185 289.947 156.955V162H288.826V160.913H288.717C288.48 161.305 288.165 161.606 287.773 161.815C287.382 162.025 286.939 162.13 286.447 162.13ZM294.849 162.13C293.905 162.13 293.153 161.784 292.593 161.091C292.032 160.398 291.752 159.473 291.752 158.315C291.752 157.162 292.032 156.24 292.593 155.547C293.158 154.85 293.91 154.501 294.849 154.501C295.364 154.501 295.824 154.617 296.229 154.85C296.64 155.077 296.95 155.392 297.159 155.793H297.262V151.705H298.438V162H297.316V160.824H297.207C296.975 161.234 296.651 161.556 296.236 161.788C295.822 162.016 295.359 162.13 294.849 162.13ZM295.122 155.561C294.452 155.561 293.926 155.807 293.543 156.299C293.16 156.786 292.969 157.459 292.969 158.315C292.969 159.177 293.158 159.851 293.536 160.339C293.919 160.826 294.448 161.07 295.122 161.07C295.792 161.07 296.321 160.824 296.708 160.332C297.095 159.84 297.289 159.168 297.289 158.315C297.289 157.472 297.093 156.802 296.701 156.306C296.314 155.809 295.787 155.561 295.122 155.561ZM306.682 154.631V162H305.561V160.845H305.451C305.264 161.259 304.977 161.578 304.59 161.802C304.202 162.021 303.729 162.13 303.168 162.13C302.348 162.13 301.723 161.895 301.295 161.426C300.867 160.956 300.652 160.282 300.652 159.402V154.631H301.828V159.115C301.828 159.785 301.96 160.277 302.225 160.592C302.489 160.902 302.913 161.057 303.496 161.057C304.139 161.057 304.633 160.877 304.979 160.517C305.33 160.152 305.506 159.644 305.506 158.992V154.631H306.682ZM308.896 162V154.631H310.018V155.793H310.127C310.519 154.932 311.257 154.501 312.342 154.501C313.167 154.501 313.802 154.738 314.249 155.212C314.696 155.681 314.919 156.354 314.919 157.229V162H313.743V157.516C313.743 156.855 313.6 156.365 313.312 156.046C313.03 155.722 312.595 155.561 312.007 155.561C311.414 155.561 310.943 155.747 310.592 156.121C310.245 156.49 310.072 156.996 310.072 157.639V162H308.896ZM319.342 161.098C319.948 161.098 320.449 160.922 320.846 160.571C321.247 160.22 321.447 159.781 321.447 159.252V158.575L319.465 158.705C318.909 158.742 318.501 158.858 318.241 159.054C317.981 159.25 317.852 159.535 317.852 159.908C317.852 160.277 317.991 160.569 318.269 160.783C318.547 160.993 318.904 161.098 319.342 161.098ZM319.123 162.13C318.398 162.13 317.801 161.932 317.332 161.535C316.867 161.134 316.635 160.601 316.635 159.936C316.635 159.279 316.867 158.764 317.332 158.391C317.797 158.017 318.46 157.805 319.321 157.755L321.447 157.625V156.955C321.447 156.499 321.306 156.151 321.023 155.909C320.741 155.668 320.326 155.547 319.779 155.547C319.337 155.547 318.97 155.627 318.679 155.786C318.387 155.946 318.2 156.171 318.118 156.463H316.929C317.006 155.875 317.309 155.401 317.838 155.041C318.371 154.681 319.032 154.501 319.82 154.501C320.714 154.501 321.404 154.717 321.892 155.15C322.379 155.583 322.623 156.185 322.623 156.955V162H321.502V160.913H321.393C321.156 161.305 320.841 161.606 320.449 161.815C320.057 162.025 319.615 162.13 319.123 162.13ZM327.381 157.898C327.381 160.318 326.734 162.385 325.439 164.099H324.441C324.934 163.474 325.344 162.574 325.672 161.398C326.005 160.218 326.171 159.051 326.171 157.898C326.171 156.75 326.005 155.588 325.672 154.412C325.339 153.236 324.929 152.334 324.441 151.705H325.439C326.734 153.419 327.381 155.483 327.381 157.898Z" fill="#2F3D32" fill-opacity="0.75"/>
<path d="M224.411 195V186.913H224.295L221.841 188.636V186.94L224.418 185.136H226.175V195H224.411ZM232.601 195.246C231.416 195.246 230.491 194.79 229.825 193.879C229.164 192.967 228.834 191.694 228.834 190.058C228.834 188.431 229.167 187.164 229.832 186.257C230.502 185.345 231.425 184.89 232.601 184.89C233.776 184.89 234.697 185.345 235.362 186.257C236.028 187.168 236.36 188.44 236.36 190.071C236.36 191.698 236.028 192.967 235.362 193.879C234.701 194.79 233.781 195.246 232.601 195.246ZM231.138 192.826C231.484 193.464 231.972 193.783 232.601 193.783C233.229 193.783 233.715 193.464 234.057 192.826C234.403 192.184 234.576 191.261 234.576 190.058C234.576 188.864 234.403 187.95 234.057 187.316C233.71 186.678 233.225 186.359 232.601 186.359C231.976 186.359 231.489 186.678 231.138 187.316C230.791 187.954 230.618 188.868 230.618 190.058C230.618 191.261 230.791 192.184 231.138 192.826ZM239.491 193.954C239.172 193.954 238.91 193.852 238.705 193.646C238.5 193.441 238.397 193.184 238.397 192.874C238.397 192.56 238.5 192.302 238.705 192.102C238.91 191.896 239.172 191.794 239.491 191.794C239.815 191.794 240.077 191.896 240.277 192.102C240.482 192.302 240.585 192.56 240.585 192.874C240.585 193.184 240.482 193.441 240.277 193.646C240.077 193.852 239.815 193.954 239.491 193.954ZM239.491 188.827C239.172 188.827 238.91 188.727 238.705 188.526C238.5 188.321 238.397 188.064 238.397 187.754C238.397 187.439 238.5 187.182 238.705 186.981C238.91 186.776 239.172 186.674 239.491 186.674C239.815 186.674 240.077 186.776 240.277 186.981C240.482 187.182 240.585 187.439 240.585 187.754C240.585 188.064 240.482 188.321 240.277 188.526C240.077 188.727 239.815 188.827 239.491 188.827ZM247.4 195V193.161H242.581V191.589C243.383 190.112 244.723 187.961 246.601 185.136H249.089V191.671H250.422V193.161H249.089V195H247.4ZM244.215 191.609V191.712H247.428V186.571H247.332C246.266 188.148 245.227 189.827 244.215 191.609ZM255.87 195.246C254.685 195.246 253.76 194.79 253.095 193.879C252.434 192.967 252.104 191.694 252.104 190.058C252.104 188.431 252.436 187.164 253.102 186.257C253.771 185.345 254.694 184.89 255.87 184.89C257.046 184.89 257.966 185.345 258.632 186.257C259.297 187.168 259.63 188.44 259.63 190.071C259.63 191.698 259.297 192.967 258.632 193.879C257.971 194.79 257.05 195.246 255.87 195.246ZM254.407 192.826C254.754 193.464 255.241 193.783 255.87 193.783C256.499 193.783 256.984 193.464 257.326 192.826C257.673 192.184 257.846 191.261 257.846 190.058C257.846 188.864 257.673 187.95 257.326 187.316C256.98 186.678 256.494 186.359 255.87 186.359C255.246 186.359 254.758 186.678 254.407 187.316C254.061 187.954 253.888 188.868 253.888 190.058C253.888 191.261 254.061 192.184 254.407 192.826ZM271.839 195L271.005 192.478H267.375L266.527 195H264.743L268.243 185.136H270.226L273.732 195H271.839ZM269.139 187.016L267.785 191.083H270.595L269.255 187.016H269.139ZM285.613 195H283.973V188.062H283.877L281.149 194.617H279.892L277.164 188.062H277.068V195H275.428V185.136H277.492L280.459 192.32H280.582L283.549 185.136H285.613V195Z" fill="#2F3D32" fill-opacity="0.75"/>
<path d="M50.0781 220.545H53.2715C54.0723 220.545 54.7227 220.801 55.2227 221.312C55.7266 221.82 55.9785 222.477 55.9785 223.281C55.9785 224.07 55.7227 224.719 55.2109 225.227C54.7031 225.73 54.0527 225.982 53.2598 225.982H51.1328V229H50.0781V220.545ZM51.1328 221.482V225.045H52.9961C53.5977 225.045 54.0645 224.891 54.3965 224.582C54.7285 224.273 54.8945 223.84 54.8945 223.281C54.8945 222.699 54.7305 222.254 54.4023 221.945C54.0781 221.637 53.6094 221.482 52.9961 221.482H51.1328ZM57.6367 229V220.176H58.6445V229H57.6367ZM63.1211 223.463C62.6172 223.463 62.2031 223.633 61.8789 223.973C61.5547 224.312 61.373 224.762 61.334 225.32H64.8145C64.8027 224.762 64.6426 224.312 64.334 223.973C64.0254 223.633 63.6211 223.463 63.1211 223.463ZM64.7852 227.365H65.793C65.6406 227.912 65.3301 228.34 64.8613 228.648C64.3965 228.957 63.8203 229.111 63.1328 229.111C62.2578 229.111 61.5645 228.818 61.0527 228.232C60.541 227.643 60.2852 226.848 60.2852 225.848C60.2852 224.852 60.543 224.057 61.0586 223.463C61.5742 222.869 62.2656 222.572 63.1328 222.572C63.9844 222.572 64.6543 222.855 65.1426 223.422C65.6309 223.988 65.875 224.764 65.875 225.748V226.135H61.334V226.182C61.3613 226.807 61.5371 227.303 61.8613 227.67C62.1895 228.037 62.6211 228.221 63.1562 228.221C63.9727 228.221 64.5156 227.936 64.7852 227.365ZM69.4023 228.227C69.9219 228.227 70.3516 228.076 70.6914 227.775C71.0352 227.475 71.207 227.098 71.207 226.645V226.064L69.5078 226.176C69.0312 226.207 68.6816 226.307 68.459 226.475C68.2363 226.643 68.125 226.887 68.125 227.207C68.125 227.523 68.2441 227.773 68.4824 227.957C68.7207 228.137 69.0273 228.227 69.4023 228.227ZM69.2148 229.111C68.5938 229.111 68.082 228.941 67.6797 228.602C67.2812 228.258 67.082 227.801 67.082 227.23C67.082 226.668 67.2812 226.227 67.6797 225.906C68.0781 225.586 68.6465 225.404 69.3848 225.361L71.207 225.25V224.676C71.207 224.285 71.0859 223.986 70.8438 223.779C70.6016 223.572 70.2461 223.469 69.7773 223.469C69.3984 223.469 69.084 223.537 68.834 223.674C68.584 223.811 68.4238 224.004 68.3535 224.254H67.334C67.4004 223.75 67.6602 223.344 68.1133 223.035C68.5703 222.727 69.1367 222.572 69.8125 222.572C70.5781 222.572 71.1699 222.758 71.5879 223.129C72.0059 223.5 72.2148 224.016 72.2148 224.676V229H71.2539V228.068H71.1602C70.957 228.404 70.6875 228.662 70.3516 228.842C70.0156 229.021 69.6367 229.111 69.2148 229.111ZM73.9316 224.412C73.9316 223.889 74.1562 223.451 74.6055 223.1C75.0547 222.748 75.6152 222.572 76.2871 222.572C76.9473 222.572 77.4922 222.725 77.9219 223.029C78.3516 223.334 78.5996 223.746 78.666 224.266H77.6699C77.5996 224.008 77.4434 223.805 77.2012 223.656C76.9629 223.504 76.6562 223.428 76.2812 223.428C75.9023 223.428 75.584 223.516 75.3262 223.691C75.0723 223.867 74.9453 224.094 74.9453 224.371C74.9453 224.586 75.0332 224.766 75.209 224.91C75.3887 225.051 75.666 225.166 76.041 225.256L77.0137 225.49C77.6152 225.635 78.0586 225.844 78.3438 226.117C78.6328 226.391 78.7773 226.752 78.7773 227.201C78.7773 227.76 78.5371 228.219 78.0566 228.578C77.5762 228.934 76.9727 229.111 76.2461 229.111C75.543 229.111 74.9668 228.955 74.5176 228.643C74.0684 228.33 73.8164 227.912 73.7617 227.389H74.7988C74.8848 227.662 75.0547 227.877 75.3086 228.033C75.5625 228.186 75.8867 228.262 76.2812 228.262C76.707 228.262 77.0566 228.17 77.3301 227.986C77.6035 227.803 77.7402 227.566 77.7402 227.277C77.7402 226.848 77.4062 226.551 76.7383 226.387L75.6543 226.123C75.0566 225.979 74.6191 225.771 74.3418 225.502C74.0684 225.229 73.9316 224.865 73.9316 224.412ZM82.8789 223.463C82.375 223.463 81.9609 223.633 81.6367 223.973C81.3125 224.312 81.1309 224.762 81.0918 225.32H84.5723C84.5605 224.762 84.4004 224.312 84.0918 223.973C83.7832 223.633 83.3789 223.463 82.8789 223.463ZM84.543 227.365H85.5508C85.3984 227.912 85.0879 228.34 84.6191 228.648C84.1543 228.957 83.5781 229.111 82.8906 229.111C82.0156 229.111 81.3223 228.818 80.8105 228.232C80.2988 227.643 80.043 226.848 80.043 225.848C80.043 224.852 80.3008 224.057 80.8164 223.463C81.332 222.869 82.0234 222.572 82.8906 222.572C83.7422 222.572 84.4121 222.855 84.9004 223.422C85.3887 223.988 85.6328 224.764 85.6328 225.748V226.135H81.0918V226.182C81.1191 226.807 81.2949 227.303 81.6191 227.67C81.9473 228.037 82.3789 228.221 82.9141 228.221C83.7305 228.221 84.2734 227.936 84.543 227.365ZM90.6016 229V222.684H91.5625V223.68H91.6562C91.9922 222.941 92.625 222.572 93.5547 222.572C94.2617 222.572 94.8066 222.775 95.1895 223.182C95.5723 223.584 95.7637 224.16 95.7637 224.91V229H94.7559V225.156C94.7559 224.59 94.6328 224.17 94.3867 223.896C94.1445 223.619 93.7715 223.48 93.2676 223.48C92.7598 223.48 92.3555 223.641 92.0547 223.961C91.7578 224.277 91.6094 224.711 91.6094 225.262V229H90.6016ZM102.332 228.238C101.812 228.82 101.104 229.111 100.205 229.111C99.3066 229.111 98.5957 228.82 98.0723 228.238C97.5527 227.652 97.293 226.854 97.293 225.842C97.293 224.826 97.5527 224.027 98.0723 223.445C98.5918 222.863 99.3027 222.572 100.205 222.572C101.107 222.572 101.818 222.863 102.338 223.445C102.857 224.027 103.117 224.826 103.117 225.842C103.117 226.854 102.855 227.652 102.332 228.238ZM98.8223 227.588C99.1465 227.998 99.6074 228.203 100.205 228.203C100.803 228.203 101.264 227.998 101.588 227.588C101.912 227.174 102.074 226.592 102.074 225.842C102.074 225.092 101.912 224.512 101.588 224.102C101.264 223.688 100.803 223.48 100.205 223.48C99.6074 223.48 99.1465 223.688 98.8223 224.102C98.498 224.512 98.3359 225.092 98.3359 225.842C98.3359 226.592 98.498 227.174 98.8223 227.588ZM105.121 221.049H106.129V222.684H107.535V223.527H106.129V227.102C106.129 227.473 106.203 227.742 106.352 227.91C106.5 228.078 106.738 228.162 107.066 228.162C107.211 228.162 107.367 228.154 107.535 228.139V228.988C107.312 229.027 107.115 229.047 106.943 229.047C106.291 229.047 105.824 228.916 105.543 228.654C105.262 228.393 105.121 227.961 105.121 227.359V223.527H104.102V222.684H105.121V221.049ZM111.484 223.463C110.98 223.463 110.566 223.633 110.242 223.973C109.918 224.312 109.736 224.762 109.697 225.32H113.178C113.166 224.762 113.006 224.312 112.697 223.973C112.389 223.633 111.984 223.463 111.484 223.463ZM113.148 227.365H114.156C114.004 227.912 113.693 228.34 113.225 228.648C112.76 228.957 112.184 229.111 111.496 229.111C110.621 229.111 109.928 228.818 109.416 228.232C108.904 227.643 108.648 226.848 108.648 225.848C108.648 224.852 108.906 224.057 109.422 223.463C109.938 222.869 110.629 222.572 111.496 222.572C112.348 222.572 113.018 222.855 113.506 223.422C113.994 223.988 114.238 224.764 114.238 225.748V226.135H109.697V226.182C109.725 226.807 109.9 227.303 110.225 227.67C110.553 228.037 110.984 228.221 111.52 228.221C112.336 228.221 112.879 227.936 113.148 227.365ZM119.629 221.049H120.637V222.684H122.043V223.527H120.637V227.102C120.637 227.473 120.711 227.742 120.859 227.91C121.008 228.078 121.246 228.162 121.574 228.162C121.719 228.162 121.875 228.154 122.043 228.139V228.988C121.82 229.027 121.623 229.047 121.451 229.047C120.799 229.047 120.332 228.916 120.051 228.654C119.77 228.393 119.629 227.961 119.629 227.359V223.527H118.609V222.684H119.629V221.049ZM123.625 229V220.176H124.633V223.68H124.727C124.887 223.324 125.131 223.051 125.459 222.859C125.791 222.668 126.195 222.572 126.672 222.572C127.344 222.572 127.875 222.779 128.266 223.193C128.656 223.604 128.852 224.176 128.852 224.91V229H127.844V225.156C127.844 224.039 127.357 223.48 126.385 223.48C125.83 223.48 125.398 223.643 125.09 223.967C124.785 224.287 124.633 224.719 124.633 225.262V229H123.625ZM132.637 228.227C133.156 228.227 133.586 228.076 133.926 227.775C134.27 227.475 134.441 227.098 134.441 226.645V226.064L132.742 226.176C132.266 226.207 131.916 226.307 131.693 226.475C131.471 226.643 131.359 226.887 131.359 227.207C131.359 227.523 131.479 227.773 131.717 227.957C131.955 228.137 132.262 228.227 132.637 228.227ZM132.449 229.111C131.828 229.111 131.316 228.941 130.914 228.602C130.516 228.258 130.316 227.801 130.316 227.23C130.316 226.668 130.516 226.227 130.914 225.906C131.312 225.586 131.881 225.404 132.619 225.361L134.441 225.25V224.676C134.441 224.285 134.32 223.986 134.078 223.779C133.836 223.572 133.48 223.469 133.012 223.469C132.633 223.469 132.318 223.537 132.068 223.674C131.818 223.811 131.658 224.004 131.588 224.254H130.568C130.635 223.75 130.895 223.344 131.348 223.035C131.805 222.727 132.371 222.572 133.047 222.572C133.812 222.572 134.404 222.758 134.822 223.129C135.24 223.5 135.449 224.016 135.449 224.676V229H134.488V228.068H134.395C134.191 228.404 133.922 228.662 133.586 228.842C133.25 229.021 132.871 229.111 132.449 229.111ZM137.734 221.049H138.742V222.684H140.148V223.527H138.742V227.102C138.742 227.473 138.816 227.742 138.965 227.91C139.113 228.078 139.352 228.162 139.68 228.162C139.824 228.162 139.98 228.154 140.148 228.139V228.988C139.926 229.027 139.729 229.047 139.557 229.047C138.904 229.047 138.438 228.916 138.156 228.654C137.875 228.393 137.734 227.961 137.734 227.359V223.527H136.715V222.684H137.734V221.049ZM145.48 221.049H146.488V222.684H147.895V223.527H146.488V227.102C146.488 227.473 146.562 227.742 146.711 227.91C146.859 228.078 147.098 228.162 147.426 228.162C147.57 228.162 147.727 228.154 147.895 228.139V228.988C147.672 229.027 147.475 229.047 147.303 229.047C146.65 229.047 146.184 228.916 145.902 228.654C145.621 228.393 145.48 227.961 145.48 227.359V223.527H144.461V222.684H145.48V221.049ZM149.477 229V220.176H150.484V223.68H150.578C150.738 223.324 150.982 223.051 151.311 222.859C151.643 222.668 152.047 222.572 152.523 222.572C153.195 222.572 153.727 222.779 154.117 223.193C154.508 223.604 154.703 224.176 154.703 224.91V229H153.695V225.156C153.695 224.039 153.209 223.48 152.236 223.48C151.682 223.48 151.25 223.643 150.941 223.967C150.637 224.287 150.484 224.719 150.484 225.262V229H149.477ZM156.566 229V222.684H157.574V229H156.566ZM157.568 221.195C157.432 221.332 157.266 221.4 157.07 221.4C156.875 221.4 156.709 221.332 156.572 221.195C156.436 221.055 156.367 220.889 156.367 220.697C156.367 220.506 156.436 220.342 156.572 220.205C156.709 220.064 156.875 219.994 157.07 219.994C157.266 219.994 157.432 220.064 157.568 220.205C157.705 220.342 157.773 220.506 157.773 220.697C157.773 220.889 157.705 221.055 157.568 221.195ZM159.35 224.412C159.35 223.889 159.574 223.451 160.023 223.1C160.473 222.748 161.033 222.572 161.705 222.572C162.365 222.572 162.91 222.725 163.34 223.029C163.77 223.334 164.018 223.746 164.084 224.266H163.088C163.018 224.008 162.861 223.805 162.619 223.656C162.381 223.504 162.074 223.428 161.699 223.428C161.32 223.428 161.002 223.516 160.744 223.691C160.49 223.867 160.363 224.094 160.363 224.371C160.363 224.586 160.451 224.766 160.627 224.91C160.807 225.051 161.084 225.166 161.459 225.256L162.432 225.49C163.033 225.635 163.477 225.844 163.762 226.117C164.051 226.391 164.195 226.752 164.195 227.201C164.195 227.76 163.955 228.219 163.475 228.578C162.994 228.934 162.391 229.111 161.664 229.111C160.961 229.111 160.385 228.955 159.936 228.643C159.486 228.33 159.234 227.912 159.18 227.389H160.217C160.303 227.662 160.473 227.877 160.727 228.033C160.98 228.186 161.305 228.262 161.699 228.262C162.125 228.262 162.475 228.17 162.748 227.986C163.021 227.803 163.158 227.566 163.158 227.277C163.158 226.848 162.824 226.551 162.156 226.387L161.072 226.123C160.475 225.979 160.037 225.771 159.76 225.502C159.486 225.229 159.35 224.865 159.35 224.412ZM169.586 221.049H170.594V222.684H172V223.527H170.594V227.102C170.594 227.473 170.668 227.742 170.816 227.91C170.965 228.078 171.203 228.162 171.531 228.162C171.676 228.162 171.832 228.154 172 228.139V228.988C171.777 229.027 171.58 229.047 171.408 229.047C170.756 229.047 170.289 228.916 170.008 228.654C169.727 228.393 169.586 227.961 169.586 227.359V223.527H168.566V222.684H169.586V221.049ZM173.547 229V222.684H174.555V229H173.547ZM174.549 221.195C174.412 221.332 174.246 221.4 174.051 221.4C173.855 221.4 173.689 221.332 173.553 221.195C173.416 221.055 173.348 220.889 173.348 220.697C173.348 220.506 173.416 220.342 173.553 220.205C173.689 220.064 173.855 219.994 174.051 219.994C174.246 219.994 174.412 220.064 174.549 220.205C174.686 220.342 174.754 220.506 174.754 220.697C174.754 220.889 174.686 221.055 174.549 221.195ZM181.703 224.617H180.684C180.598 224.285 180.412 224.014 180.127 223.803C179.846 223.588 179.488 223.48 179.055 223.48C178.488 223.48 178.037 223.691 177.701 224.113C177.369 224.535 177.203 225.104 177.203 225.818C177.203 226.545 177.371 227.125 177.707 227.559C178.043 227.988 178.492 228.203 179.055 228.203C179.48 228.203 179.834 228.107 180.115 227.916C180.4 227.725 180.59 227.451 180.684 227.096H181.703C181.609 227.693 181.33 228.18 180.865 228.555C180.4 228.926 179.799 229.111 179.061 229.111C178.174 229.111 177.469 228.814 176.945 228.221C176.422 227.623 176.16 226.822 176.16 225.818C176.16 224.834 176.422 224.047 176.945 223.457C177.469 222.867 178.172 222.572 179.055 222.572C179.793 222.572 180.395 222.766 180.859 223.152C181.328 223.539 181.609 224.027 181.703 224.617ZM184.352 225.443L187.094 222.684H188.33L185.611 225.391L188.512 229H187.229L184.861 226.041L184.258 226.604V229H183.25V220.176H184.258V225.443H184.352ZM191.934 223.463C191.43 223.463 191.016 223.633 190.691 223.973C190.367 224.312 190.186 224.762 190.146 225.32H193.627C193.615 224.762 193.455 224.312 193.146 223.973C192.838 223.633 192.434 223.463 191.934 223.463ZM193.598 227.365H194.605C194.453 227.912 194.143 228.34 193.674 228.648C193.209 228.957 192.633 229.111 191.945 229.111C191.07 229.111 190.377 228.818 189.865 228.232C189.354 227.643 189.098 226.848 189.098 225.848C189.098 224.852 189.355 224.057 189.871 223.463C190.387 222.869 191.078 222.572 191.945 222.572C192.797 222.572 193.467 222.855 193.955 223.422C194.443 223.988 194.688 224.764 194.688 225.748V226.135H190.146V226.182C190.174 226.807 190.35 227.303 190.674 227.67C191.002 228.037 191.434 228.221 191.969 228.221C192.785 228.221 193.328 227.936 193.598 227.365ZM196.691 221.049H197.699V222.684H199.105V223.527H197.699V227.102C197.699 227.473 197.773 227.742 197.922 227.91C198.07 228.078 198.309 228.162 198.637 228.162C198.781 228.162 198.938 228.154 199.105 228.139V228.988C198.883 229.027 198.686 229.047 198.514 229.047C197.861 229.047 197.395 228.916 197.113 228.654C196.832 228.393 196.691 227.961 196.691 227.359V223.527H195.672V222.684H196.691V221.049ZM204.039 229V222.684H205.047V229H204.039ZM205.041 221.195C204.904 221.332 204.738 221.4 204.543 221.4C204.348 221.4 204.182 221.332 204.045 221.195C203.908 221.055 203.84 220.889 203.84 220.697C203.84 220.506 203.908 220.342 204.045 220.205C204.182 220.064 204.348 219.994 204.543 219.994C204.738 219.994 204.904 220.064 205.041 220.205C205.178 220.342 205.246 220.506 205.246 220.697C205.246 220.889 205.178 221.055 205.041 221.195ZM206.822 224.412C206.822 223.889 207.047 223.451 207.496 223.1C207.945 222.748 208.506 222.572 209.178 222.572C209.838 222.572 210.383 222.725 210.812 223.029C211.242 223.334 211.49 223.746 211.557 224.266H210.561C210.49 224.008 210.334 223.805 210.092 223.656C209.854 223.504 209.547 223.428 209.172 223.428C208.793 223.428 208.475 223.516 208.217 223.691C207.963 223.867 207.836 224.094 207.836 224.371C207.836 224.586 207.924 224.766 208.1 224.91C208.279 225.051 208.557 225.166 208.932 225.256L209.904 225.49C210.506 225.635 210.949 225.844 211.234 226.117C211.523 226.391 211.668 226.752 211.668 227.201C211.668 227.76 211.428 228.219 210.947 228.578C210.467 228.934 209.863 229.111 209.137 229.111C208.434 229.111 207.857 228.955 207.408 228.643C206.959 228.33 206.707 227.912 206.652 227.389H207.689C207.775 227.662 207.945 227.877 208.199 228.033C208.453 228.186 208.777 228.262 209.172 228.262C209.598 228.262 209.947 228.17 210.221 227.986C210.494 227.803 210.631 227.566 210.631 227.277C210.631 226.848 210.297 226.551 209.629 226.387L208.545 226.123C207.947 225.979 207.51 225.771 207.232 225.502C206.959 225.229 206.822 224.865 206.822 224.412ZM221.793 222.684L219.455 229H218.424L216.086 222.684H217.164L218.893 227.887H218.986L220.715 222.684H221.793ZM224.852 228.227C225.371 228.227 225.801 228.076 226.141 227.775C226.484 227.475 226.656 227.098 226.656 226.645V226.064L224.957 226.176C224.48 226.207 224.131 226.307 223.908 226.475C223.686 226.643 223.574 226.887 223.574 227.207C223.574 227.523 223.693 227.773 223.932 227.957C224.17 228.137 224.477 228.227 224.852 228.227ZM224.664 229.111C224.043 229.111 223.531 228.941 223.129 228.602C222.73 228.258 222.531 227.801 222.531 227.23C222.531 226.668 222.73 226.227 223.129 225.906C223.527 225.586 224.096 225.404 224.834 225.361L226.656 225.25V224.676C226.656 224.285 226.535 223.986 226.293 223.779C226.051 223.572 225.695 223.469 225.227 223.469C224.848 223.469 224.533 223.537 224.283 223.674C224.033 223.811 223.873 224.004 223.803 224.254H222.783C222.85 223.75 223.109 223.344 223.562 223.035C224.02 222.727 224.586 222.572 225.262 222.572C226.027 222.572 226.619 222.758 227.037 223.129C227.455 223.5 227.664 224.016 227.664 224.676V229H226.703V228.068H226.609C226.406 228.404 226.137 228.662 225.801 228.842C225.465 229.021 225.086 229.111 224.664 229.111ZM229.586 229V220.176H230.594V229H229.586ZM232.574 229V222.684H233.582V229H232.574ZM233.576 221.195C233.439 221.332 233.273 221.4 233.078 221.4C232.883 221.4 232.717 221.332 232.58 221.195C232.443 221.055 232.375 220.889 232.375 220.697C232.375 220.506 232.443 220.342 232.58 220.205C232.717 220.064 232.883 219.994 233.078 219.994C233.273 219.994 233.439 220.064 233.576 220.205C233.713 220.342 233.781 220.506 233.781 220.697C233.781 220.889 233.713 221.055 233.576 221.195ZM237.842 229.111C237.033 229.111 236.389 228.814 235.908 228.221C235.428 227.627 235.188 226.834 235.188 225.842C235.188 224.854 235.428 224.062 235.908 223.469C236.393 222.871 237.037 222.572 237.842 222.572C238.283 222.572 238.678 222.672 239.025 222.871C239.377 223.066 239.643 223.336 239.822 223.68H239.91V220.176H240.918V229H239.957V227.992H239.863C239.664 228.344 239.387 228.619 239.031 228.818C238.676 229.014 238.279 229.111 237.842 229.111ZM238.076 223.48C237.502 223.48 237.051 223.691 236.723 224.113C236.395 224.531 236.23 225.107 236.23 225.842C236.23 226.58 236.393 227.158 236.717 227.576C237.045 227.994 237.498 228.203 238.076 228.203C238.65 228.203 239.104 227.992 239.436 227.57C239.768 227.148 239.934 226.572 239.934 225.842C239.934 225.119 239.766 224.545 239.43 224.119C239.098 223.693 238.646 223.48 238.076 223.48ZM251.371 222.684V229H250.41V228.01H250.316C250.156 228.365 249.91 228.639 249.578 228.83C249.246 229.018 248.84 229.111 248.359 229.111C247.656 229.111 247.121 228.91 246.754 228.508C246.387 228.105 246.203 227.527 246.203 226.773V222.684H247.211V226.527C247.211 227.102 247.324 227.523 247.551 227.793C247.777 228.059 248.141 228.191 248.641 228.191C249.191 228.191 249.615 228.037 249.912 227.729C250.213 227.416 250.363 226.98 250.363 226.422V222.684H251.371ZM253.27 229V222.684H254.23V223.68H254.324C254.66 222.941 255.293 222.572 256.223 222.572C256.93 222.572 257.475 222.775 257.857 223.182C258.24 223.584 258.432 224.16 258.432 224.91V229H257.424V225.156C257.424 224.59 257.301 224.17 257.055 223.896C256.812 223.619 256.439 223.48 255.936 223.48C255.428 223.48 255.023 223.641 254.723 223.961C254.426 224.277 254.277 224.711 254.277 225.262V229H253.27ZM260.699 221.049H261.707V222.684H263.113V223.527H261.707V227.102C261.707 227.473 261.781 227.742 261.93 227.91C262.078 228.078 262.316 228.162 262.645 228.162C262.789 228.162 262.945 228.154 263.113 228.139V228.988C262.891 229.027 262.693 229.047 262.521 229.047C261.869 229.047 261.402 228.916 261.121 228.654C260.84 228.393 260.699 227.961 260.699 227.359V223.527H259.68V222.684H260.699V221.049ZM264.66 229V222.684H265.668V229H264.66ZM265.662 221.195C265.525 221.332 265.359 221.4 265.164 221.4C264.969 221.4 264.803 221.332 264.666 221.195C264.529 221.055 264.461 220.889 264.461 220.697C264.461 220.506 264.529 220.342 264.666 220.205C264.803 220.064 264.969 219.994 265.164 219.994C265.359 219.994 265.525 220.064 265.662 220.205C265.799 220.342 265.867 220.506 265.867 220.697C265.867 220.889 265.799 221.055 265.662 221.195ZM267.648 229V220.176H268.656V229H267.648ZM50.3711 240.049H51.3789V241.684H52.7852V242.527H51.3789V246.102C51.3789 246.473 51.4531 246.742 51.6016 246.91C51.75 247.078 51.9883 247.162 52.3164 247.162C52.4609 247.162 52.6172 247.154 52.7852 247.139V247.988C52.5625 248.027 52.3652 248.047 52.1934 248.047C51.541 248.047 51.0742 247.916 50.793 247.654C50.5117 247.393 50.3711 246.961 50.3711 246.359V242.527H49.3516V241.684H50.3711V240.049ZM54.3672 248V239.176H55.375V242.68H55.4688C55.6289 242.324 55.873 242.051 56.2012 241.859C56.5332 241.668 56.9375 241.572 57.4141 241.572C58.0859 241.572 58.6172 241.779 59.0078 242.193C59.3984 242.604 59.5938 243.176 59.5938 243.91V248H58.5859V244.156C58.5859 243.039 58.0996 242.48 57.127 242.48C56.5723 242.48 56.1406 242.643 55.832 242.967C55.5273 243.287 55.375 243.719 55.375 244.262V248H54.3672ZM63.9531 242.463C63.4492 242.463 63.0352 242.633 62.7109 242.973C62.3867 243.312 62.2051 243.762 62.166 244.32H65.6465C65.6348 243.762 65.4746 243.312 65.166 242.973C64.8574 242.633 64.4531 242.463 63.9531 242.463ZM65.6172 246.365H66.625C66.4727 246.912 66.1621 247.34 65.6934 247.648C65.2285 247.957 64.6523 248.111 63.9648 248.111C63.0898 248.111 62.3965 247.818 61.8848 247.232C61.373 246.643 61.1172 245.848 61.1172 244.848C61.1172 243.852 61.375 243.057 61.8906 242.463C62.4062 241.869 63.0977 241.572 63.9648 241.572C64.8164 241.572 65.4863 241.855 65.9746 242.422C66.4629 242.988 66.707 243.764 66.707 244.748V245.135H62.166V245.182C62.1934 245.807 62.3691 246.303 62.6934 246.67C63.0215 247.037 63.4531 247.221 63.9883 247.221C64.8047 247.221 65.3477 246.936 65.6172 246.365ZM73.6211 247.227C74.1406 247.227 74.5703 247.076 74.9102 246.775C75.2539 246.475 75.4258 246.098 75.4258 245.645V245.064L73.7266 245.176C73.25 245.207 72.9004 245.307 72.6777 245.475C72.4551 245.643 72.3438 245.887 72.3438 246.207C72.3438 246.523 72.4629 246.773 72.7012 246.957C72.9395 247.137 73.2461 247.227 73.6211 247.227ZM73.4336 248.111C72.8125 248.111 72.3008 247.941 71.8984 247.602C71.5 247.258 71.3008 246.801 71.3008 246.23C71.3008 245.668 71.5 245.227 71.8984 244.906C72.2969 244.586 72.8652 244.404 73.6035 244.361L75.4258 244.25V243.676C75.4258 243.285 75.3047 242.986 75.0625 242.779C74.8203 242.572 74.4648 242.469 73.9961 242.469C73.6172 242.469 73.3027 242.537 73.0527 242.674C72.8027 242.811 72.6426 243.004 72.5723 243.254H71.5527C71.6191 242.75 71.8789 242.344 72.332 242.035C72.7891 241.727 73.3555 241.572 74.0312 241.572C74.7969 241.572 75.3887 241.758 75.8066 242.129C76.2246 242.5 76.4336 243.016 76.4336 243.676V248H75.4727V247.068H75.3789C75.1758 247.404 74.9062 247.662 74.5703 247.842C74.2344 248.021 73.8555 248.111 73.4336 248.111ZM78.2969 248V241.684H79.2578V242.621H79.3516C79.4453 242.312 79.6562 242.061 79.9844 241.865C80.3125 241.67 80.6855 241.572 81.1035 241.572C81.2949 241.572 81.4629 241.582 81.6074 241.602V242.609C81.4707 242.57 81.2559 242.551 80.9629 242.551C80.4824 242.551 80.0859 242.695 79.7734 242.984C79.4609 243.273 79.3047 243.641 79.3047 244.086V248H78.2969ZM82.9844 248V241.684H83.9453V242.621H84.0391C84.1328 242.312 84.3438 242.061 84.6719 241.865C85 241.67 85.373 241.572 85.791 241.572C85.9824 241.572 86.1504 241.582 86.2949 241.602V242.609C86.1582 242.57 85.9434 242.551 85.6504 242.551C85.1699 242.551 84.7734 242.695 84.4609 242.984C84.1484 243.273 83.9922 243.641 83.9922 244.086V248H82.9844ZM87.5781 248V241.684H88.5859V248H87.5781ZM88.5801 240.195C88.4434 240.332 88.2773 240.4 88.082 240.4C87.8867 240.4 87.7207 240.332 87.584 240.195C87.4473 240.055 87.3789 239.889 87.3789 239.697C87.3789 239.506 87.4473 239.342 87.584 239.205C87.7207 239.064 87.8867 238.994 88.082 238.994C88.2773 238.994 88.4434 239.064 88.5801 239.205C88.7168 239.342 88.7852 239.506 88.7852 239.697C88.7852 239.889 88.7168 240.055 88.5801 240.195ZM95.6641 241.684L93.3262 248H92.2949L89.957 241.684H91.0352L92.7637 246.887H92.8574L94.5859 241.684H95.6641ZM98.7227 247.227C99.2422 247.227 99.6719 247.076 100.012 246.775C100.355 246.475 100.527 246.098 100.527 245.645V245.064L98.8281 245.176C98.3516 245.207 98.002 245.307 97.7793 245.475C97.5566 245.643 97.4453 245.887 97.4453 246.207C97.4453 246.523 97.5645 246.773 97.8027 246.957C98.041 247.137 98.3477 247.227 98.7227 247.227ZM98.5352 248.111C97.9141 248.111 97.4023 247.941 97 247.602C96.6016 247.258 96.4023 246.801 96.4023 246.23C96.4023 245.668 96.6016 245.227 97 244.906C97.3984 244.586 97.9668 244.404 98.7051 244.361L100.527 244.25V243.676C100.527 243.285 100.406 242.986 100.164 242.779C99.9219 242.572 99.5664 242.469 99.0977 242.469C98.7188 242.469 98.4043 242.537 98.1543 242.674C97.9043 242.811 97.7441 243.004 97.6738 243.254H96.6543C96.7207 242.75 96.9805 242.344 97.4336 242.035C97.8906 241.727 98.457 241.572 99.1328 241.572C99.8984 241.572 100.49 241.758 100.908 242.129C101.326 242.5 101.535 243.016 101.535 243.676V248H100.574V247.068H100.48C100.277 247.404 100.008 247.662 99.6719 247.842C99.3359 248.021 98.957 248.111 98.5352 248.111ZM103.457 248V239.176H104.465V248H103.457ZM110.23 240.049H111.238V241.684H112.645V242.527H111.238V246.102C111.238 246.473 111.312 246.742 111.461 246.91C111.609 247.078 111.848 247.162 112.176 247.162C112.32 247.162 112.477 247.154 112.645 247.139V247.988C112.422 248.027 112.225 248.047 112.053 248.047C111.4 248.047 110.934 247.916 110.652 247.654C110.371 247.393 110.23 246.961 110.23 246.359V242.527H109.211V241.684H110.23V240.049ZM114.191 248V241.684H115.199V248H114.191ZM115.193 240.195C115.057 240.332 114.891 240.4 114.695 240.4C114.5 240.4 114.334 240.332 114.197 240.195C114.061 240.055 113.992 239.889 113.992 239.697C113.992 239.506 114.061 239.342 114.197 239.205C114.334 239.064 114.5 238.994 114.695 238.994C114.891 238.994 115.057 239.064 115.193 239.205C115.33 239.342 115.398 239.506 115.398 239.697C115.398 239.889 115.33 240.055 115.193 240.195ZM117.121 248V241.684H118.082V242.68H118.176C118.32 242.328 118.545 242.057 118.85 241.865C119.154 241.67 119.518 241.572 119.939 241.572C120.354 241.572 120.709 241.672 121.006 241.871C121.307 242.07 121.533 242.34 121.686 242.68H121.779C121.951 242.34 122.209 242.07 122.553 241.871C122.896 241.672 123.283 241.572 123.713 241.572C124.357 241.572 124.854 241.752 125.201 242.111C125.549 242.467 125.723 242.975 125.723 243.635V248H124.715V243.869C124.715 242.943 124.271 242.48 123.385 242.48C122.955 242.48 122.604 242.621 122.33 242.902C122.057 243.184 121.92 243.529 121.92 243.939V248H120.912V243.711C120.912 243.336 120.791 243.037 120.549 242.814C120.311 242.592 119.992 242.48 119.594 242.48C119.184 242.48 118.836 242.637 118.551 242.949C118.27 243.262 118.129 243.641 118.129 244.086V248H117.121ZM130.082 242.463C129.578 242.463 129.164 242.633 128.84 242.973C128.516 243.312 128.334 243.762 128.295 244.32H131.775C131.764 243.762 131.604 243.312 131.295 242.973C130.986 242.633 130.582 242.463 130.082 242.463ZM131.746 246.365H132.754C132.602 246.912 132.291 247.34 131.822 247.648C131.357 247.957 130.781 248.111 130.094 248.111C129.219 248.111 128.525 247.818 128.014 247.232C127.502 246.643 127.246 245.848 127.246 244.848C127.246 243.852 127.504 243.057 128.02 242.463C128.535 241.869 129.227 241.572 130.094 241.572C130.945 241.572 131.615 241.855 132.104 242.422C132.592 242.988 132.836 243.764 132.836 244.748V245.135H128.295V245.182C128.322 245.807 128.498 246.303 128.822 246.67C129.15 247.037 129.582 247.221 130.117 247.221C130.934 247.221 131.477 246.936 131.746 246.365ZM137.658 243.412C137.658 242.889 137.883 242.451 138.332 242.1C138.781 241.748 139.342 241.572 140.014 241.572C140.674 241.572 141.219 241.725 141.648 242.029C142.078 242.334 142.326 242.746 142.393 243.266H141.396C141.326 243.008 141.17 242.805 140.928 242.656C140.689 242.504 140.383 242.428 140.008 242.428C139.629 242.428 139.311 242.516 139.053 242.691C138.799 242.867 138.672 243.094 138.672 243.371C138.672 243.586 138.76 243.766 138.936 243.91C139.115 244.051 139.393 244.166 139.768 244.256L140.74 244.49C141.342 244.635 141.785 244.844 142.07 245.117C142.359 245.391 142.504 245.752 142.504 246.201C142.504 246.76 142.264 247.219 141.783 247.578C141.303 247.934 140.699 248.111 139.973 248.111C139.27 248.111 138.693 247.955 138.244 247.643C137.795 247.33 137.543 246.912 137.488 246.389H138.525C138.611 246.662 138.781 246.877 139.035 247.033C139.289 247.186 139.613 247.262 140.008 247.262C140.434 247.262 140.783 247.17 141.057 246.986C141.33 246.803 141.467 246.566 141.467 246.277C141.467 245.848 141.133 245.551 140.465 245.387L139.381 245.123C138.783 244.979 138.346 244.771 138.068 244.502C137.795 244.229 137.658 243.865 137.658 243.412ZM144.449 240.049H145.457V241.684H146.863V242.527H145.457V246.102C145.457 246.473 145.531 246.742 145.68 246.91C145.828 247.078 146.066 247.162 146.395 247.162C146.539 247.162 146.695 247.154 146.863 247.139V247.988C146.641 248.027 146.443 248.047 146.271 248.047C145.619 248.047 145.152 247.916 144.871 247.654C144.59 247.393 144.449 246.961 144.449 246.359V242.527H143.43V241.684H144.449V240.049ZM150.332 247.227C150.852 247.227 151.281 247.076 151.621 246.775C151.965 246.475 152.137 246.098 152.137 245.645V245.064L150.438 245.176C149.961 245.207 149.611 245.307 149.389 245.475C149.166 245.643 149.055 245.887 149.055 246.207C149.055 246.523 149.174 246.773 149.412 246.957C149.65 247.137 149.957 247.227 150.332 247.227ZM150.145 248.111C149.523 248.111 149.012 247.941 148.609 247.602C148.211 247.258 148.012 246.801 148.012 246.23C148.012 245.668 148.211 245.227 148.609 244.906C149.008 244.586 149.576 244.404 150.314 244.361L152.137 244.25V243.676C152.137 243.285 152.016 242.986 151.773 242.779C151.531 242.572 151.176 242.469 150.707 242.469C150.328 242.469 150.014 242.537 149.764 242.674C149.514 242.811 149.354 243.004 149.283 243.254H148.264C148.33 242.75 148.59 242.344 149.043 242.035C149.5 241.727 150.066 241.572 150.742 241.572C151.508 241.572 152.1 241.758 152.518 242.129C152.936 242.5 153.145 243.016 153.145 243.676V248H152.184V247.068H152.09C151.887 247.404 151.617 247.662 151.281 247.842C150.945 248.021 150.566 248.111 150.145 248.111ZM155.43 240.049H156.438V241.684H157.844V242.527H156.438V246.102C156.438 246.473 156.512 246.742 156.66 246.91C156.809 247.078 157.047 247.162 157.375 247.162C157.52 247.162 157.676 247.154 157.844 247.139V247.988C157.621 248.027 157.424 248.047 157.252 248.047C156.6 248.047 156.133 247.916 155.852 247.654C155.57 247.393 155.43 246.961 155.43 246.359V242.527H154.41V241.684H155.43V240.049ZM161.793 242.463C161.289 242.463 160.875 242.633 160.551 242.973C160.227 243.312 160.045 243.762 160.006 244.32H163.486C163.475 243.762 163.314 243.312 163.006 242.973C162.697 242.633 162.293 242.463 161.793 242.463ZM163.457 246.365H164.465C164.312 246.912 164.002 247.34 163.533 247.648C163.068 247.957 162.492 248.111 161.805 248.111C160.93 248.111 160.236 247.818 159.725 247.232C159.213 246.643 158.957 245.848 158.957 244.848C158.957 243.852 159.215 243.057 159.73 242.463C160.246 241.869 160.938 241.572 161.805 241.572C162.656 241.572 163.326 241.855 163.814 242.422C164.303 242.988 164.547 243.764 164.547 244.748V245.135H160.006V245.182C160.033 245.807 160.209 246.303 160.533 246.67C160.861 247.037 161.293 247.221 161.828 247.221C162.645 247.221 163.188 246.936 163.457 246.365ZM168.467 248.111C167.658 248.111 167.014 247.814 166.533 247.221C166.053 246.627 165.812 245.834 165.812 244.842C165.812 243.854 166.053 243.062 166.533 242.469C167.018 241.871 167.662 241.572 168.467 241.572C168.908 241.572 169.303 241.672 169.65 241.871C170.002 242.066 170.268 242.336 170.447 242.68H170.535V239.176H171.543V248H170.582V246.992H170.488C170.289 247.344 170.012 247.619 169.656 247.818C169.301 248.014 168.904 248.111 168.467 248.111ZM168.701 242.48C168.127 242.48 167.676 242.691 167.348 243.113C167.02 243.531 166.855 244.107 166.855 244.842C166.855 245.58 167.018 246.158 167.342 246.576C167.67 246.994 168.123 247.203 168.701 247.203C169.275 247.203 169.729 246.992 170.061 246.57C170.393 246.148 170.559 245.572 170.559 244.842C170.559 244.119 170.391 243.545 170.055 243.119C169.723 242.693 169.271 242.48 168.701 242.48ZM178.832 247.227C179.352 247.227 179.781 247.076 180.121 246.775C180.465 246.475 180.637 246.098 180.637 245.645V245.064L178.938 245.176C178.461 245.207 178.111 245.307 177.889 245.475C177.666 245.643 177.555 245.887 177.555 246.207C177.555 246.523 177.674 246.773 177.912 246.957C178.15 247.137 178.457 247.227 178.832 247.227ZM178.645 248.111C178.023 248.111 177.512 247.941 177.109 247.602C176.711 247.258 176.512 246.801 176.512 246.23C176.512 245.668 176.711 245.227 177.109 244.906C177.508 244.586 178.076 244.404 178.814 244.361L180.637 244.25V243.676C180.637 243.285 180.516 242.986 180.273 242.779C180.031 242.572 179.676 242.469 179.207 242.469C178.828 242.469 178.514 242.537 178.264 242.674C178.014 242.811 177.854 243.004 177.783 243.254H176.764C176.83 242.75 177.09 242.344 177.543 242.035C178 241.727 178.566 241.572 179.242 241.572C180.008 241.572 180.6 241.758 181.018 242.129C181.436 242.5 181.645 243.016 181.645 243.676V248H180.684V247.068H180.59C180.387 247.404 180.117 247.662 179.781 247.842C179.445 248.021 179.066 248.111 178.645 248.111ZM186.648 248.111C186.211 248.111 185.812 248.014 185.453 247.818C185.098 247.619 184.82 247.344 184.621 246.992H184.527V248H183.566V239.176H184.574V242.68H184.668C184.84 242.34 185.104 242.07 185.459 241.871C185.818 241.672 186.215 241.572 186.648 241.572C187.453 241.572 188.096 241.869 188.576 242.463C189.057 243.057 189.297 243.85 189.297 244.842C189.297 245.83 189.055 246.623 188.57 247.221C188.09 247.814 187.449 248.111 186.648 248.111ZM186.414 242.48C185.84 242.48 185.385 242.691 185.049 243.113C184.717 243.535 184.551 244.111 184.551 244.842C184.551 245.572 184.717 246.148 185.049 246.57C185.385 246.992 185.84 247.203 186.414 247.203C186.992 247.203 187.443 246.994 187.768 246.576C188.092 246.158 188.254 245.58 188.254 244.842C188.254 244.104 188.092 243.525 187.768 243.107C187.443 242.689 186.992 242.48 186.414 242.48ZM195.602 247.238C195.082 247.82 194.373 248.111 193.475 248.111C192.576 248.111 191.865 247.82 191.342 247.238C190.822 246.652 190.562 245.854 190.562 244.842C190.562 243.826 190.822 243.027 191.342 242.445C191.861 241.863 192.572 241.572 193.475 241.572C194.377 241.572 195.088 241.863 195.607 242.445C196.127 243.027 196.387 243.826 196.387 244.842C196.387 245.854 196.125 246.652 195.602 247.238ZM192.092 246.588C192.416 246.998 192.877 247.203 193.475 247.203C194.072 247.203 194.533 246.998 194.857 246.588C195.182 246.174 195.344 245.592 195.344 244.842C195.344 244.092 195.182 243.512 194.857 243.102C194.533 242.688 194.072 242.48 193.475 242.48C192.877 242.48 192.416 242.688 192.092 243.102C191.768 243.512 191.605 244.092 191.605 244.842C191.605 245.592 191.768 246.174 192.092 246.588ZM202.891 241.684L200.553 248H199.521L197.184 241.684H198.262L199.99 246.887H200.084L201.812 241.684H202.891ZM206.523 242.463C206.02 242.463 205.605 242.633 205.281 242.973C204.957 243.312 204.775 243.762 204.736 244.32H208.217C208.205 243.762 208.045 243.312 207.736 242.973C207.428 242.633 207.023 242.463 206.523 242.463ZM208.188 246.365H209.195C209.043 246.912 208.732 247.34 208.264 247.648C207.799 247.957 207.223 248.111 206.535 248.111C205.66 248.111 204.967 247.818 204.455 247.232C203.943 246.643 203.688 245.848 203.688 244.848C203.688 243.852 203.945 243.057 204.461 242.463C204.977 241.869 205.668 241.572 206.535 241.572C207.387 241.572 208.057 241.855 208.545 242.422C209.033 242.988 209.277 243.764 209.277 244.748V245.135H204.736V245.182C204.764 245.807 204.939 246.303 205.264 246.67C205.592 247.037 206.023 247.221 206.559 247.221C207.375 247.221 207.918 246.936 208.188 246.365Z" fill="#FF1010"/>
<rect x="299" y="215" width="30" height="30" rx="4" fill="#2F3D32" fill-opacity="0.1"/>
<path d="M307 238H321V236H307V238ZM321 227H317V221H311V227H307L314 234L321 227Z" fill="black"/>
<path d="M50.0078 44.6016C50.0078 43.513 50.388 42.6302 51.1484 41.9531C51.9089 41.276 52.8984 40.9375 54.1172 40.9375C55.2943 40.9375 56.2526 41.2448 56.9922 41.8594C57.737 42.4688 58.1094 43.2578 58.1094 44.2266C58.1094 44.8411 57.9167 45.4531 57.5312 46.0625C57.1458 46.6667 56.4661 47.4271 55.4922 48.3438L53.3359 50.3984V50.5391H58.2734V52.5H50.1406V50.8516L53.8203 47.25C54.612 46.4792 55.1406 45.901 55.4062 45.5156C55.6719 45.1302 55.8047 44.7526 55.8047 44.3828C55.8047 43.9297 55.638 43.5599 55.3047 43.2734C54.9766 42.9818 54.5547 42.8359 54.0391 42.8359C53.4922 42.8359 53.0469 43 52.7031 43.3281C52.3646 43.651 52.1953 44.0729 52.1953 44.5938V44.6406H50.0078V44.6016ZM60.9375 52.5L65.7422 43.3047V43.1641H60.0547V41.2188H68.1172V43.1875L63.4062 52.5H60.9375ZM73.7031 49.1875H75.9844C75.9948 49.6406 76.1354 50.0026 76.4062 50.2734C76.6823 50.5443 77.0469 50.6797 77.5 50.6797C77.9844 50.6797 78.3542 50.5365 78.6094 50.25C78.8698 49.9583 79 49.5365 79 48.9844V41.2266H81.3594V49C81.3594 50.2083 81.0208 51.1432 80.3438 51.8047C79.6719 52.4609 78.7344 52.7891 77.5312 52.7891C76.3698 52.7891 75.4401 52.4635 74.7422 51.8125C74.0495 51.1615 73.7031 50.2865 73.7031 49.1875ZM91.6719 43.8828V52.5H89.4688V51.1172H89.3281C88.901 52.1641 88.0625 52.6875 86.8125 52.6875C85.8802 52.6875 85.1432 52.4062 84.6016 51.8438C84.0651 51.276 83.7969 50.4948 83.7969 49.5V43.8828H86.0703V48.9141C86.0703 50.112 86.599 50.7109 87.6562 50.7109C88.2135 50.7109 88.6432 50.5469 88.9453 50.2188C89.2474 49.8906 89.3984 49.4349 89.3984 48.8516V43.8828H91.6719ZM93.9531 52.5V43.8828H96.1562V45.2656H96.2969C96.5 44.7708 96.8177 44.3854 97.25 44.1094C97.6875 43.8333 98.2188 43.6953 98.8438 43.6953C99.7969 43.6953 100.526 43.9766 101.031 44.5391C101.536 45.0964 101.789 45.8932 101.789 46.9297V52.5H99.5156V47.4688C99.5156 46.2604 98.987 45.6562 97.9297 45.6562C97.4036 45.6562 96.987 45.8281 96.6797 46.1719C96.3776 46.5104 96.2266 46.9635 96.2266 47.5312V52.5H93.9531ZM105.484 55.5547H103.961L104.68 50.6719H106.906L105.484 55.5547ZM113.555 44.6016C113.555 43.513 113.935 42.6302 114.695 41.9531C115.456 41.276 116.445 40.9375 117.664 40.9375C118.841 40.9375 119.799 41.2448 120.539 41.8594C121.284 42.4688 121.656 43.2578 121.656 44.2266C121.656 44.8411 121.464 45.4531 121.078 46.0625C120.693 46.6667 120.013 47.4271 119.039 48.3438L116.883 50.3984V50.5391H121.82V52.5H113.688V50.8516L117.367 47.25C118.159 46.4792 118.688 45.901 118.953 45.5156C119.219 45.1302 119.352 44.7526 119.352 44.3828C119.352 43.9297 119.185 43.5599 118.852 43.2734C118.523 42.9818 118.102 42.8359 117.586 42.8359C117.039 42.8359 116.594 43 116.25 43.3281C115.911 43.651 115.742 44.0729 115.742 44.5938V44.6406H113.555V44.6016ZM131.602 51.2188C130.81 52.2656 129.716 52.7891 128.32 52.7891C126.924 52.7891 125.828 52.2656 125.031 51.2188C124.24 50.1667 123.844 48.7083 123.844 46.8438C123.844 44.9844 124.24 43.5365 125.031 42.5C125.828 41.4583 126.924 40.9375 128.32 40.9375C129.711 40.9375 130.805 41.4583 131.602 42.5C132.398 43.5417 132.797 44.9922 132.797 46.8516C132.797 48.7109 132.398 50.1667 131.602 51.2188ZM126.781 49.8281C127.151 50.5208 127.664 50.8672 128.32 50.8672C128.977 50.8672 129.487 50.5234 129.852 49.8359C130.221 49.1432 130.406 48.1458 130.406 46.8438C130.406 45.5521 130.221 44.5677 129.852 43.8906C129.487 43.2083 128.977 42.8672 128.32 42.8672C127.669 42.8672 127.159 43.2083 126.789 43.8906C126.419 44.5729 126.234 45.5573 126.234 46.8438C126.234 48.1406 126.417 49.1354 126.781 49.8281ZM134.805 44.6016C134.805 43.513 135.185 42.6302 135.945 41.9531C136.706 41.276 137.695 40.9375 138.914 40.9375C140.091 40.9375 141.049 41.2448 141.789 41.8594C142.534 42.4688 142.906 43.2578 142.906 44.2266C142.906 44.8411 142.714 45.4531 142.328 46.0625C141.943 46.6667 141.263 47.4271 140.289 48.3438L138.133 50.3984V50.5391H143.07V52.5H134.938V50.8516L138.617 47.25C139.409 46.4792 139.938 45.901 140.203 45.5156C140.469 45.1302 140.602 44.7526 140.602 44.3828C140.602 43.9297 140.435 43.5599 140.102 43.2734C139.773 42.9818 139.352 42.8359 138.836 42.8359C138.289 42.8359 137.844 43 137.5 43.3281C137.161 43.651 136.992 44.0729 136.992 44.5938V44.6406H134.805V44.6016ZM147.961 52.5V43.5234H147.82L145.055 45.4297V43.2344L147.969 41.2266H150.32V52.5H147.961Z" fill="#2F3D32"/>
<rect x="244" y="31" width="90" height="32" rx="16" fill="#2F3D32" fill-opacity="0.1"/>
<path d="M252.674 48.791H253.74C253.807 49.2324 254.035 49.584 254.426 49.8457C254.816 50.1074 255.312 50.2383 255.914 50.2383C256.484 50.2383 256.955 50.1016 257.326 49.8281C257.701 49.5508 257.889 49.2031 257.889 48.7852C257.889 48.4258 257.752 48.1289 257.479 47.8945C257.205 47.6562 256.777 47.4629 256.195 47.3145L255.111 47.0332C254.346 46.8418 253.789 46.5645 253.441 46.2012C253.094 45.8379 252.92 45.3555 252.92 44.7539C252.92 44.0352 253.193 43.4551 253.74 43.0137C254.291 42.5684 255.014 42.3457 255.908 42.3457C256.725 42.3457 257.408 42.5645 257.959 43.002C258.51 43.4395 258.807 44 258.85 44.6836H257.789C257.715 44.25 257.508 43.9121 257.168 43.6699C256.832 43.4238 256.4 43.3008 255.873 43.3008C255.311 43.3008 254.857 43.4316 254.514 43.6934C254.174 43.9512 254.004 44.293 254.004 44.7188C254.004 45.0508 254.129 45.3203 254.379 45.5273C254.633 45.7344 255.051 45.9121 255.633 46.0605L256.518 46.2949C257.393 46.5137 258.02 46.8066 258.398 47.1738C258.781 47.541 258.973 48.0352 258.973 48.6562C258.973 49.4336 258.688 50.0527 258.117 50.5137C257.547 50.9707 256.779 51.1992 255.814 51.1992C254.92 51.1992 254.186 50.9805 253.611 50.543C253.041 50.1055 252.729 49.5215 252.674 48.791ZM263.121 45.4629C262.617 45.4629 262.203 45.6328 261.879 45.9727C261.555 46.3125 261.373 46.7617 261.334 47.3203H264.814C264.803 46.7617 264.643 46.3125 264.334 45.9727C264.025 45.6328 263.621 45.4629 263.121 45.4629ZM264.785 49.3652H265.793C265.641 49.9121 265.33 50.3398 264.861 50.6484C264.396 50.957 263.82 51.1113 263.133 51.1113C262.258 51.1113 261.564 50.8184 261.053 50.2324C260.541 49.6426 260.285 48.8477 260.285 47.8477C260.285 46.8516 260.543 46.0566 261.059 45.4629C261.574 44.8691 262.266 44.5723 263.133 44.5723C263.984 44.5723 264.654 44.8555 265.143 45.4219C265.631 45.9883 265.875 46.7637 265.875 47.748V48.1348H261.334V48.1816C261.361 48.8066 261.537 49.3027 261.861 49.6699C262.189 50.0371 262.621 50.2207 263.156 50.2207C263.973 50.2207 264.516 49.9355 264.785 49.3652ZM269.977 45.4629C269.473 45.4629 269.059 45.6328 268.734 45.9727C268.41 46.3125 268.229 46.7617 268.189 47.3203H271.67C271.658 46.7617 271.498 46.3125 271.189 45.9727C270.881 45.6328 270.477 45.4629 269.977 45.4629ZM271.641 49.3652H272.648C272.496 49.9121 272.186 50.3398 271.717 50.6484C271.252 50.957 270.676 51.1113 269.988 51.1113C269.113 51.1113 268.42 50.8184 267.908 50.2324C267.396 49.6426 267.141 48.8477 267.141 47.8477C267.141 46.8516 267.398 46.0566 267.914 45.4629C268.43 44.8691 269.121 44.5723 269.988 44.5723C270.84 44.5723 271.51 44.8555 271.998 45.4219C272.486 45.9883 272.73 46.7637 272.73 47.748V48.1348H268.189V48.1816C268.217 48.8066 268.393 49.3027 268.717 49.6699C269.045 50.0371 269.477 50.2207 270.012 50.2207C270.828 50.2207 271.371 49.9355 271.641 49.3652ZM286.16 51H285.176V44.543H285.105L282.439 50.9414H281.549L278.883 44.543H278.812V51H277.828V42.5449H279.053L281.947 49.541H282.041L284.936 42.5449H286.16V51ZM292.91 50.2383C292.391 50.8203 291.682 51.1113 290.783 51.1113C289.885 51.1113 289.174 50.8203 288.65 50.2383C288.131 49.6523 287.871 48.8535 287.871 47.8418C287.871 46.8262 288.131 46.0273 288.65 45.4453C289.17 44.8633 289.881 44.5723 290.783 44.5723C291.686 44.5723 292.396 44.8633 292.916 45.4453C293.436 46.0273 293.695 46.8262 293.695 47.8418C293.695 48.8535 293.434 49.6523 292.91 50.2383ZM289.4 49.5879C289.725 49.998 290.186 50.2031 290.783 50.2031C291.381 50.2031 291.842 49.998 292.166 49.5879C292.49 49.1738 292.652 48.5918 292.652 47.8418C292.652 47.0918 292.49 46.5117 292.166 46.1016C291.842 45.6875 291.381 45.4805 290.783 45.4805C290.186 45.4805 289.725 45.6875 289.4 46.1016C289.076 46.5117 288.914 47.0918 288.914 47.8418C288.914 48.5918 289.076 49.1738 289.4 49.5879ZM295.277 51V44.6836H296.238V45.6211H296.332C296.426 45.3125 296.637 45.0605 296.965 44.8652C297.293 44.6699 297.666 44.5723 298.084 44.5723C298.275 44.5723 298.443 44.582 298.588 44.6016V45.6094C298.451 45.5703 298.236 45.5508 297.943 45.5508C297.463 45.5508 297.066 45.6953 296.754 45.9844C296.441 46.2734 296.285 46.6406 296.285 47.0859V51H295.277ZM302.191 45.4629C301.688 45.4629 301.273 45.6328 300.949 45.9727C300.625 46.3125 300.443 46.7617 300.404 47.3203H303.885C303.873 46.7617 303.713 46.3125 303.404 45.9727C303.096 45.6328 302.691 45.4629 302.191 45.4629ZM303.855 49.3652H304.863C304.711 49.9121 304.4 50.3398 303.932 50.6484C303.467 50.957 302.891 51.1113 302.203 51.1113C301.328 51.1113 300.635 50.8184 300.123 50.2324C299.611 49.6426 299.355 48.8477 299.355 47.8477C299.355 46.8516 299.613 46.0566 300.129 45.4629C300.645 44.8691 301.336 44.5723 302.203 44.5723C303.055 44.5723 303.725 44.8555 304.213 45.4219C304.701 45.9883 304.945 46.7637 304.945 47.748V48.1348H300.404V48.1816C300.432 48.8066 300.607 49.3027 300.932 49.6699C301.26 50.0371 301.691 50.2207 302.227 50.2207C303.043 50.2207 303.586 49.9355 303.855 49.3652Z" fill="black"/>
<path d="M315.94 52.28L320.287 47.9333C320.8 47.42 320.8 46.58 320.287 46.0666L315.94 41.72" stroke="#2F3D32" stroke-width="2" stroke-miterlimit="10" stroke-linecap="round" stroke-linejoin="round"/>
<path d="M50.2168 82.1357H54.1953C55.1797 82.1357 55.9772 82.4434 56.5879 83.0586C57.2031 83.6738 57.5107 84.4782 57.5107 85.4717C57.5107 86.4469 57.194 87.2399 56.5605 87.8506C55.9316 88.4613 55.1182 88.7666 54.1201 88.7666H51.9805V92H50.2168V82.1357ZM51.9805 83.6123V87.3037H53.7236C54.3571 87.3037 54.847 87.1442 55.1934 86.8252C55.5443 86.5062 55.7197 86.055 55.7197 85.4717C55.7197 84.8701 55.5465 84.4098 55.2002 84.0908C54.8584 83.7718 54.3685 83.6123 53.7305 83.6123H51.9805ZM61.5645 90.79C62.0749 90.79 62.501 90.6442 62.8428 90.3525C63.1846 90.0563 63.3555 89.6917 63.3555 89.2588V88.6641L61.667 88.7734C60.7373 88.8327 60.2725 89.1699 60.2725 89.7852C60.2725 90.0951 60.391 90.3411 60.6279 90.5234C60.8695 90.7012 61.1816 90.79 61.5645 90.79ZM61.0654 92.123C60.3363 92.123 59.7415 91.918 59.2812 91.5078C58.821 91.0977 58.5908 90.5553 58.5908 89.8809C58.5908 89.2064 58.8346 88.6777 59.3223 88.2949C59.8145 87.9121 60.5163 87.6934 61.4277 87.6387L63.3555 87.5225V86.8936C63.3555 86.5244 63.2347 86.2419 62.9932 86.0459C62.7516 85.8499 62.403 85.752 61.9473 85.752C61.5553 85.752 61.2318 85.8203 60.9766 85.957C60.7214 86.0892 60.555 86.2806 60.4775 86.5312H58.8779C58.9463 85.8704 59.2653 85.3464 59.835 84.959C60.4092 84.5671 61.1406 84.3711 62.0293 84.3711C62.9863 84.3711 63.7246 84.5921 64.2441 85.0342C64.7682 85.4762 65.0303 86.096 65.0303 86.8936V92H63.3965V90.9746H63.2803C63.0706 91.3346 62.7699 91.6172 62.3779 91.8223C61.9906 92.0228 61.5531 92.123 61.0654 92.123ZM66.9033 86.6611C66.9033 85.9867 67.1813 85.4375 67.7373 85.0137C68.2933 84.5853 69.0133 84.3711 69.8975 84.3711C70.7861 84.3711 71.4948 84.5602 72.0234 84.9385C72.5566 85.3122 72.8529 85.8385 72.9121 86.5176H71.3193C71.2555 86.2487 71.1006 86.0391 70.8545 85.8887C70.613 85.7337 70.2962 85.6562 69.9043 85.6562C69.5124 85.6562 69.1888 85.7406 68.9336 85.9092C68.6784 86.0778 68.5508 86.2965 68.5508 86.5654C68.5508 86.7751 68.6396 86.9482 68.8174 87.085C68.9997 87.2217 69.2799 87.3333 69.6582 87.4199L70.9775 87.7207C71.6976 87.8848 72.2262 88.1286 72.5635 88.4521C72.9007 88.7757 73.0693 89.2109 73.0693 89.7578C73.0693 90.4733 72.7731 91.0521 72.1807 91.4941C71.5882 91.9316 70.8226 92.1504 69.8838 92.1504C68.9495 92.1504 68.2021 91.959 67.6416 91.5762C67.0856 91.1934 66.7757 90.6624 66.7119 89.9834H68.3867C68.4688 90.266 68.6396 90.4847 68.8994 90.6396C69.1637 90.79 69.5055 90.8652 69.9248 90.8652C70.3532 90.8652 70.7018 90.7809 70.9707 90.6123C71.2396 90.4391 71.374 90.2135 71.374 89.9355C71.374 89.5208 71.0299 89.2383 70.3418 89.0879L69.0156 88.7803C68.2956 88.6162 67.7624 88.3633 67.416 88.0215C67.0742 87.6751 66.9033 87.2217 66.9033 86.6611ZM74.4775 86.6611C74.4775 85.9867 74.7555 85.4375 75.3115 85.0137C75.8675 84.5853 76.5876 84.3711 77.4717 84.3711C78.3604 84.3711 79.069 84.5602 79.5977 84.9385C80.1309 85.3122 80.4271 85.8385 80.4863 86.5176H78.8936C78.8298 86.2487 78.6748 86.0391 78.4287 85.8887C78.1872 85.7337 77.8704 85.6562 77.4785 85.6562C77.0866 85.6562 76.763 85.7406 76.5078 85.9092C76.2526 86.0778 76.125 86.2965 76.125 86.5654C76.125 86.7751 76.2139 86.9482 76.3916 87.085C76.5739 87.2217 76.8542 87.3333 77.2324 87.4199L78.5518 87.7207C79.2718 87.8848 79.8005 88.1286 80.1377 88.4521C80.4749 88.7757 80.6436 89.2109 80.6436 89.7578C80.6436 90.4733 80.3473 91.0521 79.7549 91.4941C79.1624 91.9316 78.3968 92.1504 77.458 92.1504C76.5238 92.1504 75.7764 91.959 75.2158 91.5762C74.6598 91.1934 74.3499 90.6624 74.2861 89.9834H75.9609C76.043 90.266 76.2139 90.4847 76.4736 90.6396C76.738 90.79 77.0798 90.8652 77.499 90.8652C77.9274 90.8652 78.276 90.7809 78.5449 90.6123C78.8138 90.4391 78.9482 90.2135 78.9482 89.9355C78.9482 89.5208 78.6042 89.2383 77.916 89.0879L76.5898 88.7803C75.8698 88.6162 75.3366 88.3633 74.9902 88.0215C74.6484 87.6751 74.4775 87.2217 74.4775 86.6611ZM85.4971 85.7178C84.9912 85.7178 84.5742 85.8841 84.2461 86.2168C83.918 86.5495 83.7357 86.9893 83.6992 87.5361H87.2197C87.2015 86.9801 87.0374 86.5381 86.7275 86.21C86.4176 85.8818 86.0075 85.7178 85.4971 85.7178ZM87.2334 89.9424H88.8398C88.6803 90.626 88.3044 91.166 87.7119 91.5625C87.124 91.9544 86.3926 92.1504 85.5176 92.1504C84.4193 92.1504 83.5557 91.8086 82.9268 91.125C82.3024 90.4368 81.9902 89.4912 81.9902 88.2881C81.9902 87.085 82.3047 86.1325 82.9336 85.4307C83.5625 84.7243 84.4193 84.3711 85.5039 84.3711C86.5703 84.3711 87.4043 84.7061 88.0059 85.376C88.612 86.0413 88.915 86.9642 88.915 88.1445V88.6914H83.6924V88.7803C83.7152 89.4046 83.8929 89.8991 84.2256 90.2637C84.5628 90.6237 85.0094 90.8037 85.5654 90.8037C86.4222 90.8037 86.9782 90.5166 87.2334 89.9424ZM90.6172 92V84.5215H92.251V85.7178H92.3672C92.5495 85.2894 92.8275 84.959 93.2012 84.7266C93.5794 84.4896 94.042 84.3711 94.5889 84.3711C95.4183 84.3711 96.054 84.6126 96.4961 85.0957C96.9427 85.5788 97.166 86.2669 97.166 87.1602V92H95.4707V87.5635C95.4707 86.4196 94.9671 85.8477 93.96 85.8477C93.4541 85.8477 93.0531 86.0094 92.7568 86.333C92.4606 86.6566 92.3125 87.0941 92.3125 87.6455V92H90.6172ZM101.021 89.8877C101.345 90.3024 101.801 90.5098 102.389 90.5098C102.977 90.5098 103.439 90.3001 103.776 89.8809C104.114 89.4616 104.282 88.8942 104.282 88.1787C104.282 87.4632 104.114 86.8958 103.776 86.4766C103.439 86.0527 102.977 85.8408 102.389 85.8408C101.805 85.8408 101.35 86.0505 101.021 86.4697C100.698 86.889 100.536 87.4587 100.536 88.1787C100.536 88.8988 100.698 89.4684 101.021 89.8877ZM102.389 94.8438C101.436 94.8438 100.661 94.6501 100.064 94.2627C99.472 93.8753 99.1416 93.3581 99.0732 92.7109H100.775C100.83 92.9707 101.001 93.1758 101.288 93.3262C101.58 93.4766 101.956 93.5518 102.416 93.5518C102.995 93.5518 103.446 93.4219 103.77 93.1621C104.093 92.9023 104.255 92.5378 104.255 92.0684V90.6533H104.139C103.924 91.0544 103.619 91.362 103.223 91.5762C102.831 91.7858 102.375 91.8906 101.855 91.8906C100.917 91.8906 100.172 91.5557 99.6201 90.8857C99.0687 90.2113 98.793 89.3089 98.793 88.1787C98.793 87.0303 99.071 86.1143 99.627 85.4307C100.183 84.7425 100.935 84.3984 101.883 84.3984C102.393 84.3984 102.856 84.5169 103.271 84.7539C103.685 84.9909 103.995 85.3122 104.2 85.7178H104.316V84.5215H105.95V92.0273C105.95 92.8932 105.629 93.5791 104.986 94.085C104.344 94.5908 103.478 94.8438 102.389 94.8438ZM111.173 85.7178C110.667 85.7178 110.25 85.8841 109.922 86.2168C109.594 86.5495 109.411 86.9893 109.375 87.5361H112.896C112.877 86.9801 112.713 86.5381 112.403 86.21C112.093 85.8818 111.683 85.7178 111.173 85.7178ZM112.909 89.9424H114.516C114.356 90.626 113.98 91.166 113.388 91.5625C112.8 91.9544 112.068 92.1504 111.193 92.1504C110.095 92.1504 109.231 91.8086 108.603 91.125C107.978 90.4368 107.666 89.4912 107.666 88.2881C107.666 87.085 107.98 86.1325 108.609 85.4307C109.238 84.7243 110.095 84.3711 111.18 84.3711C112.246 84.3711 113.08 84.7061 113.682 85.376C114.288 86.0413 114.591 86.9642 114.591 88.1445V88.6914H109.368V88.7803C109.391 89.4046 109.569 89.8991 109.901 90.2637C110.239 90.6237 110.685 90.8037 111.241 90.8037C112.098 90.8037 112.654 90.5166 112.909 89.9424ZM116.293 92V84.5215H117.927V85.6836H118.043C118.148 85.3099 118.382 85.0023 118.747 84.7607C119.116 84.5192 119.54 84.3984 120.019 84.3984C120.324 84.3984 120.559 84.4235 120.723 84.4736V86.0459C120.549 85.9821 120.26 85.9502 119.854 85.9502C119.303 85.9502 118.854 86.1097 118.508 86.4287C118.161 86.7432 117.988 87.1602 117.988 87.6797V92H116.293ZM127.729 92H126.027V82.1357H127.559L132.398 88.8418H132.515V82.1357H134.21V92H132.686L127.846 85.2871H127.729V92ZM139.029 90.79C139.54 90.79 139.966 90.6442 140.308 90.3525C140.649 90.0563 140.82 89.6917 140.82 89.2588V88.6641L139.132 88.7734C138.202 88.8327 137.737 89.1699 137.737 89.7852C137.737 90.0951 137.856 90.3411 138.093 90.5234C138.334 90.7012 138.646 90.79 139.029 90.79ZM138.53 92.123C137.801 92.123 137.206 91.918 136.746 91.5078C136.286 91.0977 136.056 90.5553 136.056 89.8809C136.056 89.2064 136.299 88.6777 136.787 88.2949C137.279 87.9121 137.981 87.6934 138.893 87.6387L140.82 87.5225V86.8936C140.82 86.5244 140.7 86.2419 140.458 86.0459C140.216 85.8499 139.868 85.752 139.412 85.752C139.02 85.752 138.697 85.8203 138.441 85.957C138.186 86.0892 138.02 86.2806 137.942 86.5312H136.343C136.411 85.8704 136.73 85.3464 137.3 84.959C137.874 84.5671 138.605 84.3711 139.494 84.3711C140.451 84.3711 141.189 84.5921 141.709 85.0342C142.233 85.4762 142.495 86.096 142.495 86.8936V92H140.861V90.9746H140.745C140.535 91.3346 140.235 91.6172 139.843 91.8223C139.455 92.0228 139.018 92.123 138.53 92.123ZM144.539 92V84.5215H146.173V85.7314H146.289C146.449 85.3031 146.711 84.9704 147.075 84.7334C147.44 84.4919 147.87 84.3711 148.367 84.3711C148.873 84.3711 149.304 84.4919 149.659 84.7334C150.015 84.9704 150.272 85.3031 150.432 85.7314H150.548C150.735 85.3167 151.031 84.9863 151.437 84.7402C151.842 84.4941 152.302 84.3711 152.817 84.3711C153.565 84.3711 154.15 84.5921 154.574 85.0342C155.003 85.4762 155.217 86.0846 155.217 86.8594V92H153.528V87.29C153.528 86.3285 153.073 85.8477 152.161 85.8477C151.724 85.8477 151.37 85.9889 151.102 86.2715C150.833 86.554 150.698 86.9118 150.698 87.3447V92H149.051V87.167C149.051 86.7568 148.93 86.4355 148.688 86.2031C148.447 85.9661 148.117 85.8477 147.697 85.8477C147.278 85.8477 146.929 86.0003 146.651 86.3057C146.373 86.611 146.234 86.9938 146.234 87.4541V92H144.539ZM160.364 85.7178C159.858 85.7178 159.441 85.8841 159.113 86.2168C158.785 86.5495 158.603 86.9893 158.566 87.5361H162.087C162.069 86.9801 161.905 86.5381 161.595 86.21C161.285 85.8818 160.875 85.7178 160.364 85.7178ZM162.101 89.9424H163.707C163.548 90.626 163.172 91.166 162.579 91.5625C161.991 91.9544 161.26 92.1504 160.385 92.1504C159.286 92.1504 158.423 91.8086 157.794 91.125C157.17 90.4368 156.857 89.4912 156.857 88.2881C156.857 87.085 157.172 86.1325 157.801 85.4307C158.43 84.7243 159.286 84.3711 160.371 84.3711C161.438 84.3711 162.271 84.7061 162.873 85.376C163.479 86.0413 163.782 86.9642 163.782 88.1445V88.6914H158.56V88.7803C158.582 89.4046 158.76 89.8991 159.093 90.2637C159.43 90.6237 159.877 90.8037 160.433 90.8037C161.289 90.8037 161.845 90.5166 162.101 89.9424ZM170.481 92.1436C170.162 92.1436 169.9 92.041 169.695 91.8359C169.49 91.6309 169.388 91.3734 169.388 91.0635C169.388 90.749 169.49 90.4915 169.695 90.291C169.9 90.0859 170.162 89.9834 170.481 89.9834C170.805 89.9834 171.067 90.0859 171.268 90.291C171.473 90.4915 171.575 90.749 171.575 91.0635C171.575 91.3734 171.473 91.6309 171.268 91.8359C171.067 92.041 170.805 92.1436 170.481 92.1436ZM170.481 87.0166C170.162 87.0166 169.9 86.9163 169.695 86.7158C169.49 86.5107 169.388 86.2533 169.388 85.9434C169.388 85.6289 169.49 85.3714 169.695 85.1709C169.9 84.9658 170.162 84.8633 170.481 84.8633C170.805 84.8633 171.067 84.9658 171.268 85.1709C171.473 85.3714 171.575 85.6289 171.575 85.9434C171.575 86.2533 171.473 86.5107 171.268 86.7158C171.067 86.9163 170.805 87.0166 170.481 87.0166ZM177.304 89.4229H178.548C178.625 89.9378 178.892 90.348 179.348 90.6533C179.803 90.9587 180.382 91.1113 181.084 91.1113C181.749 91.1113 182.299 90.9518 182.731 90.6328C183.169 90.3092 183.388 89.9036 183.388 89.416C183.388 88.9967 183.228 88.6504 182.909 88.377C182.59 88.099 182.091 87.8734 181.412 87.7002L180.147 87.3721C179.254 87.1488 178.605 86.8252 178.199 86.4014C177.794 85.9775 177.591 85.4147 177.591 84.7129C177.591 83.8743 177.91 83.1976 178.548 82.6826C179.19 82.1631 180.034 81.9033 181.077 81.9033C182.03 81.9033 182.827 82.1585 183.47 82.6689C184.112 83.1794 184.459 83.8333 184.509 84.6309H183.271C183.185 84.125 182.943 83.7308 182.547 83.4482C182.155 83.1611 181.651 83.0176 181.036 83.0176C180.38 83.0176 179.851 83.1702 179.45 83.4756C179.054 83.7764 178.855 84.1751 178.855 84.6719C178.855 85.0592 179.001 85.3737 179.293 85.6152C179.589 85.8568 180.077 86.0641 180.756 86.2373L181.788 86.5107C182.809 86.766 183.54 87.1077 183.982 87.5361C184.429 87.9645 184.652 88.541 184.652 89.2656C184.652 90.1725 184.32 90.8949 183.654 91.4326C182.989 91.9658 182.093 92.2324 180.968 92.2324C179.924 92.2324 179.067 91.9772 178.397 91.4668C177.732 90.9564 177.368 90.2751 177.304 89.4229ZM188.822 91.0977C189.428 91.0977 189.93 90.9222 190.326 90.5713C190.727 90.2204 190.928 89.7806 190.928 89.252V88.5752L188.945 88.7051C188.389 88.7415 187.981 88.8577 187.722 89.0537C187.462 89.2497 187.332 89.5345 187.332 89.9082C187.332 90.2773 187.471 90.569 187.749 90.7832C188.027 90.9928 188.385 91.0977 188.822 91.0977ZM188.604 92.1299C187.879 92.1299 187.282 91.9316 186.812 91.5352C186.348 91.1341 186.115 90.6009 186.115 89.9355C186.115 89.2793 186.348 88.7643 186.812 88.3906C187.277 88.0169 187.94 87.805 188.802 87.7549L190.928 87.625V86.9551C190.928 86.4993 190.786 86.1507 190.504 85.9092C190.221 85.6676 189.807 85.5469 189.26 85.5469C188.818 85.5469 188.451 85.6266 188.159 85.7861C187.868 85.9456 187.681 86.1712 187.599 86.4629H186.409C186.487 85.875 186.79 85.401 187.318 85.041C187.852 84.681 188.512 84.501 189.301 84.501C190.194 84.501 190.884 84.7174 191.372 85.1504C191.86 85.5833 192.104 86.1849 192.104 86.9551V92H190.982V90.9131H190.873C190.636 91.305 190.322 91.6058 189.93 91.8154C189.538 92.0251 189.096 92.1299 188.604 92.1299ZM194.346 92V81.7051H195.521V92H194.346ZM200.074 91.0977C200.68 91.0977 201.182 90.9222 201.578 90.5713C201.979 90.2204 202.18 89.7806 202.18 89.252V88.5752L200.197 88.7051C199.641 88.7415 199.233 88.8577 198.974 89.0537C198.714 89.2497 198.584 89.5345 198.584 89.9082C198.584 90.2773 198.723 90.569 199.001 90.7832C199.279 90.9928 199.637 91.0977 200.074 91.0977ZM199.855 92.1299C199.131 92.1299 198.534 91.9316 198.064 91.5352C197.6 91.1341 197.367 90.6009 197.367 89.9355C197.367 89.2793 197.6 88.7643 198.064 88.3906C198.529 88.0169 199.192 87.805 200.054 87.7549L202.18 87.625V86.9551C202.18 86.4993 202.038 86.1507 201.756 85.9092C201.473 85.6676 201.059 85.5469 200.512 85.5469C200.07 85.5469 199.703 85.6266 199.411 85.7861C199.119 85.9456 198.933 86.1712 198.851 86.4629H197.661C197.739 85.875 198.042 85.401 198.57 85.041C199.104 84.681 199.764 84.501 200.553 84.501C201.446 84.501 202.136 84.7174 202.624 85.1504C203.112 85.5833 203.355 86.1849 203.355 86.9551V92H202.234V90.9131H202.125C201.888 91.305 201.574 91.6058 201.182 91.8154C200.79 92.0251 200.348 92.1299 199.855 92.1299ZM211.49 84.6309V92H210.369V90.8447H210.26C210.073 91.2594 209.786 91.5785 209.398 91.8018C209.011 92.0205 208.537 92.1299 207.977 92.1299C207.156 92.1299 206.532 91.8952 206.104 91.4258C205.675 90.9564 205.461 90.2819 205.461 89.4023V84.6309H206.637V89.1152C206.637 89.7852 206.769 90.2773 207.033 90.5918C207.298 90.9017 207.721 91.0566 208.305 91.0566C208.947 91.0566 209.442 90.8766 209.788 90.5166C210.139 90.152 210.314 89.6439 210.314 88.9922V84.6309H211.49ZM216.433 92.1299C215.489 92.1299 214.737 91.7835 214.177 91.0908C213.616 90.3981 213.336 89.473 213.336 88.3154C213.336 87.1624 213.616 86.2396 214.177 85.5469C214.742 84.8496 215.494 84.501 216.433 84.501C216.948 84.501 217.408 84.6172 217.813 84.8496C218.224 85.0775 218.534 85.3919 218.743 85.793H218.846V81.7051H220.021V92H218.9V90.8242H218.791C218.559 91.2344 218.235 91.5557 217.82 91.7881C217.406 92.016 216.943 92.1299 216.433 92.1299ZM216.706 85.5605C216.036 85.5605 215.51 85.8066 215.127 86.2988C214.744 86.7865 214.553 87.4587 214.553 88.3154C214.553 89.1768 214.742 89.8512 215.12 90.3389C215.503 90.8265 216.032 91.0703 216.706 91.0703C217.376 91.0703 217.905 90.8242 218.292 90.332C218.679 89.8398 218.873 89.1676 218.873 88.3154C218.873 87.4723 218.677 86.8024 218.285 86.3057C217.898 85.8089 217.371 85.5605 216.706 85.5605ZM225.244 85.54C224.656 85.54 224.173 85.7383 223.795 86.1348C223.417 86.5312 223.205 87.0553 223.159 87.707H227.22C227.206 87.0553 227.019 86.5312 226.659 86.1348C226.299 85.7383 225.827 85.54 225.244 85.54ZM227.186 90.0928H228.361C228.184 90.7308 227.821 91.2298 227.274 91.5898C226.732 91.9499 226.06 92.1299 225.258 92.1299C224.237 92.1299 223.428 91.7881 222.831 91.1045C222.234 90.4163 221.936 89.4889 221.936 88.3223C221.936 87.1602 222.236 86.2327 222.838 85.54C223.439 84.8473 224.246 84.501 225.258 84.501C226.251 84.501 227.033 84.8314 227.603 85.4922C228.172 86.153 228.457 87.0576 228.457 88.2061V88.6572H223.159V88.7119C223.191 89.4411 223.396 90.0199 223.774 90.4482C224.157 90.8766 224.661 91.0908 225.285 91.0908C226.238 91.0908 226.871 90.7581 227.186 90.0928ZM233.242 85.54C232.654 85.54 232.171 85.7383 231.793 86.1348C231.415 86.5312 231.203 87.0553 231.157 87.707H235.218C235.204 87.0553 235.017 86.5312 234.657 86.1348C234.297 85.7383 233.826 85.54 233.242 85.54ZM235.184 90.0928H236.359C236.182 90.7308 235.819 91.2298 235.272 91.5898C234.73 91.9499 234.058 92.1299 233.256 92.1299C232.235 92.1299 231.426 91.7881 230.829 91.1045C230.232 90.4163 229.934 89.4889 229.934 88.3223C229.934 87.1602 230.234 86.2327 230.836 85.54C231.438 84.8473 232.244 84.501 233.256 84.501C234.249 84.501 235.031 84.8314 235.601 85.4922C236.17 86.153 236.455 87.0576 236.455 88.2061V88.6572H231.157V88.7119C231.189 89.4411 231.394 90.0199 231.772 90.4482C232.155 90.8766 232.659 91.0908 233.283 91.0908C234.236 91.0908 234.869 90.7581 235.184 90.0928ZM238.301 92V84.6309H239.422V85.793H239.531C239.923 84.9316 240.661 84.501 241.746 84.501C242.571 84.501 243.207 84.738 243.653 85.2119C244.1 85.6813 244.323 86.3535 244.323 87.2285V92H243.147V87.5156C243.147 86.8548 243.004 86.3649 242.717 86.0459C242.434 85.7223 241.999 85.5605 241.411 85.5605C240.819 85.5605 240.347 85.7474 239.996 86.1211C239.65 86.4902 239.477 86.9961 239.477 87.6387V92H238.301ZM251.809 83.2295V87.0029H254.235C254.869 87.0029 255.356 86.8411 255.698 86.5176C256.045 86.1895 256.218 85.7223 256.218 85.1162C256.218 84.5238 256.038 84.0612 255.678 83.7285C255.318 83.3958 254.819 83.2295 254.181 83.2295H251.809ZM251.809 88.0967V92H250.578V82.1357H254.345C255.297 82.1357 256.058 82.4046 256.628 82.9424C257.202 83.4756 257.489 84.1865 257.489 85.0752C257.489 85.7633 257.314 86.3581 256.963 86.8594C256.612 87.3607 256.127 87.7093 255.507 87.9053L257.79 92H256.348L254.235 88.0967H251.809ZM259.602 92V84.6309H260.777V92H259.602ZM260.771 82.8945C260.611 83.054 260.417 83.1338 260.189 83.1338C259.962 83.1338 259.768 83.054 259.608 82.8945C259.449 82.7305 259.369 82.5368 259.369 82.3135C259.369 82.0902 259.449 81.8988 259.608 81.7393C259.768 81.5752 259.962 81.4932 260.189 81.4932C260.417 81.4932 260.611 81.5752 260.771 81.7393C260.93 81.8988 261.01 82.0902 261.01 82.3135C261.01 82.5368 260.93 82.7305 260.771 82.8945ZM265.747 92.1299C264.804 92.1299 264.052 91.7835 263.491 91.0908C262.931 90.3981 262.65 89.473 262.65 88.3154C262.65 87.1624 262.931 86.2396 263.491 85.5469C264.056 84.8496 264.808 84.501 265.747 84.501C266.262 84.501 266.722 84.6172 267.128 84.8496C267.538 85.0775 267.848 85.3919 268.058 85.793H268.16V81.7051H269.336V92H268.215V90.8242H268.105C267.873 91.2344 267.549 91.5557 267.135 91.7881C266.72 92.016 266.257 92.1299 265.747 92.1299ZM266.021 85.5605C265.351 85.5605 264.824 85.8066 264.441 86.2988C264.059 86.7865 263.867 87.4587 263.867 88.3154C263.867 89.1768 264.056 89.8512 264.435 90.3389C264.817 90.8265 265.346 91.0703 266.021 91.0703C266.69 91.0703 267.219 90.8242 267.606 90.332C267.994 89.8398 268.188 89.1676 268.188 88.3154C268.188 87.4723 267.992 86.8024 267.6 86.3057C267.212 85.8089 266.686 85.5605 266.021 85.5605ZM271.688 92V81.7051H272.863V85.793H272.973C273.16 85.3783 273.444 85.0592 273.827 84.8359C274.215 84.6126 274.686 84.501 275.242 84.501C276.026 84.501 276.646 84.7425 277.102 85.2256C277.557 85.7041 277.785 86.3717 277.785 87.2285V92H276.609V87.5156C276.609 86.2122 276.042 85.5605 274.907 85.5605C274.26 85.5605 273.757 85.7497 273.396 86.1279C273.041 86.5016 272.863 87.0052 272.863 87.6387V92H271.688ZM288.859 84.6309L286.795 92H285.599L283.951 86.2988H283.842L282.201 92H281.012L278.947 84.6309H280.137L281.586 90.5234H281.695L283.343 84.6309H284.471L286.118 90.5234H286.228L287.677 84.6309H288.859ZM292.496 91.0977C293.102 91.0977 293.604 90.9222 294 90.5713C294.401 90.2204 294.602 89.7806 294.602 89.252V88.5752L292.619 88.7051C292.063 88.7415 291.655 88.8577 291.396 89.0537C291.136 89.2497 291.006 89.5345 291.006 89.9082C291.006 90.2773 291.145 90.569 291.423 90.7832C291.701 90.9928 292.059 91.0977 292.496 91.0977ZM292.277 92.1299C291.553 92.1299 290.956 91.9316 290.486 91.5352C290.021 91.1341 289.789 90.6009 289.789 89.9355C289.789 89.2793 290.021 88.7643 290.486 88.3906C290.951 88.0169 291.614 87.805 292.476 87.7549L294.602 87.625V86.9551C294.602 86.4993 294.46 86.1507 294.178 85.9092C293.895 85.6676 293.48 85.5469 292.934 85.5469C292.492 85.5469 292.125 85.6266 291.833 85.7861C291.541 85.9456 291.354 86.1712 291.272 86.4629H290.083C290.16 85.875 290.464 85.401 290.992 85.041C291.525 84.681 292.186 84.501 292.975 84.501C293.868 84.501 294.558 84.7174 295.046 85.1504C295.534 85.5833 295.777 86.1849 295.777 86.9551V92H294.656V90.9131H294.547C294.31 91.305 293.995 91.6058 293.604 91.8154C293.212 92.0251 292.77 92.1299 292.277 92.1299ZM297.951 92V84.6309H299.072V85.793H299.182C299.574 84.9316 300.312 84.501 301.396 84.501C302.221 84.501 302.857 84.738 303.304 85.2119C303.75 85.6813 303.974 86.3535 303.974 87.2285V92H302.798V87.5156C302.798 86.8548 302.654 86.3649 302.367 86.0459C302.085 85.7223 301.649 85.5605 301.062 85.5605C300.469 85.5605 299.997 85.7474 299.646 86.1211C299.3 86.4902 299.127 86.9961 299.127 87.6387V92H297.951ZM314.077 92H310.229V82.1357H314.002C314.904 82.1357 315.615 82.3568 316.135 82.7988C316.659 83.2409 316.921 83.8402 316.921 84.5967C316.921 85.1071 316.755 85.5674 316.422 85.9775C316.094 86.3877 315.693 86.6361 315.219 86.7227V86.832C315.893 86.9186 316.429 87.1784 316.825 87.6113C317.222 88.0397 317.42 88.5798 317.42 89.2314C317.42 90.1019 317.124 90.7809 316.531 91.2686C315.943 91.7562 315.125 92 314.077 92ZM311.459 83.2227V86.3877H313.428C314.927 86.3877 315.677 85.8613 315.677 84.8086C315.677 84.3073 315.506 83.9176 315.164 83.6396C314.827 83.3617 314.353 83.2227 313.742 83.2227H311.459ZM311.459 90.9131H313.893C314.635 90.9131 315.198 90.765 315.581 90.4688C315.964 90.1725 316.155 89.7396 316.155 89.1699C316.155 88.0215 315.362 87.4473 313.776 87.4473H311.459V90.9131ZM320.25 92.0684C320.008 92.0684 319.799 91.9818 319.621 91.8086C319.448 91.6309 319.361 91.4212 319.361 91.1797C319.361 90.9336 319.448 90.724 319.621 90.5508C319.799 90.3776 320.008 90.291 320.25 90.291C320.496 90.291 320.706 90.3776 320.879 90.5508C321.052 90.724 321.139 90.9336 321.139 91.1797C321.139 91.4212 321.052 91.6309 320.879 91.8086C320.706 91.9818 320.496 92.0684 320.25 92.0684ZM324.406 92.0684C324.165 92.0684 323.955 91.9818 323.777 91.8086C323.604 91.6309 323.518 91.4212 323.518 91.1797C323.518 90.9336 323.604 90.724 323.777 90.5508C323.955 90.3776 324.165 90.291 324.406 90.291C324.652 90.291 324.862 90.3776 325.035 90.5508C325.208 90.724 325.295 90.9336 325.295 91.1797C325.295 91.4212 325.208 91.6309 325.035 91.8086C324.862 91.9818 324.652 92.0684 324.406 92.0684Z" fill="black"/>
</g>
<defs>
<filter id="filter0_d_231_2584" x="0" y="0" width="384" height="324" filterUnits="userSpaceOnUse" color-interpolation-filters="sRGB">
<feFlood flood-opacity="0" result="BackgroundImageFix"/>
<feColorMatrix in="SourceAlpha" type="matrix" values="0 0 0 0 0 0 0 0 0 0 0 0 0 0 0 0 0 0 127 0" result="hardAlpha"/>
<feOffset dy="20"/>
<feGaussianBlur stdDeviation="16"/>
<feComposite in2="hardAlpha" operator="out"/>
<feColorMatrix type="matrix" values="0 0 0 0 0 0 0 0 0 0 0 0 0 0 0 0 0 0 0.06 0"/>
<feBlend mode="normal" in2="BackgroundImageFix" result="effect1_dropShadow_231_2584"/>
<feBlend mode="normal" in="SourceGraphic" in2="effect1_dropShadow_231_2584" result="shape"/>
</filter>
</defs>
</svg>
